<svg width="50" height="50" viewBox="0 0 50 50" fill="none" xmlns="http://www.w3.org/2000/svg">
<path d="M40.625 46.875H37.5V42.1875C37.4975 40.1163 36.6736 38.1306 35.209 36.666C33.7444 35.2014 31.7587 34.3775 29.6875 34.375H20.3125C18.2413 34.3775 16.2556 35.2014 14.791 36.666C13.3264 38.1306 12.5025 40.1163 12.5 42.1875V46.875H9.375V42.1875C9.37831 39.2877 10.5317 36.5076 12.5822 34.4572C14.6326 32.4067 17.4127 31.2533 20.3125 31.25H29.6875C32.5873 31.2533 35.3674 32.4067 37.4178 34.4572C39.4683 36.5076 40.6217 39.2877 40.625 42.1875V46.875ZM7.8125 9.375C7.3981 9.375 7.00067 9.53962 6.70765 9.83265C6.41462 10.1257 6.25 10.5231 6.25 10.9375V25H9.375V10.9375C9.375 10.5231 9.21038 10.1257 8.91735 9.83265C8.62433 9.53962 8.2269 9.375 7.8125 9.375Z" fill="#E0E4E8"/>
<path d="M6.25 3.125V6.25H14.0625V17.1875C14.0625 20.0883 15.2148 22.8703 17.266 24.9215C19.3172 26.9727 22.0992 28.125 25 28.125C27.9008 28.125 30.6828 26.9727 32.734 24.9215C34.7852 22.8703 35.9375 20.0883 35.9375 17.1875V6.25H43.75V3.125H6.25ZM17.1875 6.25H32.8125V10.9375H17.1875V6.25ZM25 25C22.928 25 20.9409 24.1769 19.4757 22.7118C18.0106 21.2466 17.1875 19.2595 17.1875 17.1875V14.0625H32.8125V17.1875C32.8125 19.2595 31.9894 21.2466 30.5243 22.7118C29.0591 24.1769 27.072 25 25 25Z" fill="#E0E4E8"/>
</svg>
