<svg width="50" height="50" viewBox="0 0 50 50" fill="none" xmlns="http://www.w3.org/2000/svg">
<path d="M13.9281 38.2812L20.5797 31.6297L18.3703 29.4203L11.7188 36.0719L10.4797 34.8328C10.1867 34.5399 9.78932 34.3753 9.375 34.3753C8.96068 34.3753 8.56332 34.5399 8.27031 34.8328L2.02031 41.0828C1.72739 41.3758 1.56283 41.7732 1.56283 42.1875C1.56283 42.6018 1.72739 42.9992 2.02031 43.2922L6.70781 47.9797C7.00082 48.2726 7.39818 48.4371 7.8125 48.4371C8.22682 48.4371 8.62418 48.2726 8.91719 47.9797L15.1672 41.7297C15.4601 41.4367 15.6247 41.0393 15.6247 40.625C15.6247 40.2107 15.4601 39.8133 15.1672 39.5203L13.9281 38.2812ZM7.8125 44.6656L5.33438 42.1875L9.375 38.1468L11.8531 40.625L7.8125 44.6656Z" fill="#E0E4E8"/>
<path d="M37.5 46.875C35.0145 46.8721 32.6316 45.8835 30.8741 44.1259C29.1165 42.3684 28.1279 39.9855 28.125 37.5C28.1257 36.6832 28.2361 35.8702 28.4531 35.0828L14.9187 21.5469C14.1308 21.7639 13.3173 21.8743 12.5 21.875C10.9725 21.8811 9.46692 21.5124 8.11512 20.8012C6.76332 20.09 5.60663 19.0581 4.74647 17.7958C3.8863 16.5336 3.34893 15.0796 3.18147 13.5613C3.014 12.043 3.22156 10.5069 3.78594 9.08751L4.65781 6.8672L9.83281 12.0422C10.1302 12.3262 10.5255 12.4846 10.9367 12.4846C11.3479 12.4846 11.7433 12.3262 12.0406 12.0422C12.1859 11.8972 12.3011 11.725 12.3797 11.5355C12.4583 11.3459 12.4988 11.1427 12.4988 10.9375C12.4988 10.7323 12.4583 10.5291 12.3797 10.3396C12.3011 10.15 12.1859 9.9778 12.0406 9.83282L6.86719 4.6547L9.09062 3.78438C10.51 3.22101 12.0458 3.01429 13.5636 3.18232C15.0814 3.35036 16.5349 3.88802 17.7966 4.74821C19.0584 5.6084 20.09 6.76487 20.801 8.11632C21.512 9.46776 21.8808 10.9729 21.875 12.5C21.8743 13.3168 21.7639 14.1298 21.5469 14.9172L35.0828 28.4531C35.8703 28.2363 36.6832 28.126 37.5 28.125C39.0275 28.1189 40.5331 28.4876 41.8849 29.1988C43.2367 29.91 44.3934 30.942 45.2535 32.2042C46.1137 33.4665 46.6511 34.9205 46.8185 36.4387C46.986 37.957 46.7784 39.4931 46.2141 40.9125L45.3438 43.1328L40.1672 37.9578C39.8698 37.6739 39.4745 37.5154 39.0633 37.5154C38.6521 37.5154 38.2567 37.6739 37.9594 37.9578C37.814 38.1027 37.6987 38.2748 37.62 38.4643C37.5412 38.6538 37.5006 38.857 37.5005 39.0622C37.5003 39.2674 37.5406 39.4706 37.6191 39.6602C37.6976 39.8498 37.8127 40.0221 37.9578 40.1672L43.1344 45.3438L40.9125 46.2156C39.8265 46.6476 38.6688 46.8713 37.5 46.875ZM15.7219 17.9313L32.0672 34.2766L31.6938 35.2297C31.3278 36.1445 31.1847 37.1333 31.2764 38.1143C31.3681 39.0953 31.6918 40.0405 32.2209 40.8717C32.75 41.7029 33.4693 42.3963 34.3193 42.8946C35.1693 43.3929 36.1256 43.6818 37.1094 43.7375L35.7484 42.3781C35.3131 41.9428 34.9677 41.4261 34.7321 40.8573C34.4965 40.2885 34.3752 39.6789 34.3752 39.0633C34.3752 38.4477 34.4965 37.838 34.7321 37.2693C34.9677 36.7005 35.3131 36.1837 35.7484 35.7484C36.6414 34.8958 37.8286 34.42 39.0633 34.42C40.298 34.42 41.4852 34.8958 42.3781 35.7484L43.7375 37.1094C43.6816 36.1256 43.3924 35.1692 42.8939 34.3192C42.3954 33.4693 41.7019 32.75 40.8706 32.221C40.0393 31.6919 39.0941 31.3682 38.113 31.2765C37.1319 31.1848 36.143 31.3279 35.2281 31.6938L34.2766 32.0672L17.9328 15.7234L18.3078 14.7703C18.6738 13.8554 18.8168 12.8665 18.7251 11.8853C18.6333 10.9042 18.3094 9.95896 17.7802 9.12774C17.2509 8.29651 16.5314 7.60315 15.6812 7.10494C14.831 6.60672 13.8745 6.31796 12.8906 6.26251L14.25 7.62188C14.6854 8.05717 15.0307 8.57395 15.2663 9.14272C15.5019 9.71148 15.6232 10.3211 15.6232 10.9367C15.6232 11.5524 15.5019 12.162 15.2663 12.7307C15.0307 13.2995 14.6854 13.8163 14.25 14.2516C13.357 15.1042 12.1698 15.58 10.9352 15.58C9.70048 15.58 8.51328 15.1042 7.62031 14.2516L6.26094 12.8906C6.31663 13.8744 6.60556 14.8307 7.10387 15.6807C7.60218 16.5307 8.29557 17.25 9.12676 17.7791C9.95795 18.3082 10.9031 18.6319 11.8841 18.7236C12.8652 18.8153 13.8539 18.6722 14.7687 18.3063L15.7219 17.9313Z" fill="#E0E4E8"/>
<path d="M45.5047 4.45318C44.6117 3.60053 43.4245 3.12476 42.1898 3.12476C40.9552 3.12476 39.768 3.60053 38.875 4.45318L27.1875 16.1407L29.3969 18.3501L41.0844 6.66256C41.382 6.37849 41.7776 6.22 42.1891 6.22C42.6005 6.22 42.9961 6.37849 43.2938 6.66256C43.5859 6.95598 43.7499 7.35318 43.7499 7.76725C43.7499 8.18131 43.5859 8.57852 43.2938 8.87193L31.6063 20.5594L33.8156 22.7704L45.5031 11.0829C46.3812 10.2032 46.8744 9.01099 46.8744 7.76803C46.8744 6.52507 46.3828 5.33289 45.5047 4.45318Z" fill="#E0E4E8"/>
</svg>
