<svg width="51" height="51" viewBox="0 0 51 51" fill="none" xmlns="http://www.w3.org/2000/svg">
<path d="M41.125 19.25H31.75V9.875C31.7488 8.63218 31.2545 7.44062 30.3757 6.56181C29.4969 5.683 28.3053 5.18874 27.0625 5.1875H23.7297C22.9784 5.19069 22.2531 5.46312 21.6854 5.95535C21.1178 6.44759 20.7455 7.12701 20.6359 7.87031L19.3156 17.1156L13.7266 25.5H3.625V47.375H36.4375C39.3373 47.3717 42.1174 46.2183 44.1678 44.1678C46.2183 42.1174 47.3717 39.3373 47.375 36.4375V25.5C47.3729 23.843 46.7138 22.2545 45.5421 21.0829C44.3705 19.9112 42.782 19.2521 41.125 19.25ZM13 44.25H6.75V28.625H13V44.25ZM44.25 36.4375C44.2475 38.5087 43.4236 40.4944 41.959 41.959C40.4944 43.4236 38.5087 44.2475 36.4375 44.25H16.125V27.5359L22.3094 18.2594L23.7313 8.3125H27.0625C27.4769 8.3125 27.8743 8.47712 28.1674 8.77015C28.4604 9.06317 28.625 9.4606 28.625 9.875V22.375H41.125C41.9535 22.3758 42.7479 22.7053 43.3338 23.2912C43.9197 23.8771 44.2492 24.6715 44.25 25.5V36.4375Z" fill="#E0E4E8"/>
</svg>
