<svg width="50" height="50" viewBox="0 0 50 50" fill="none" xmlns="http://www.w3.org/2000/svg">
<path d="M25 46.875C20.6735 46.875 16.4442 45.5921 12.8469 43.1884C9.24957 40.7848 6.4458 37.3683 4.79013 33.3712C3.13446 29.3741 2.70126 24.9757 3.54532 20.7324C4.38937 16.4891 6.47276 12.5913 9.53203 9.53205C12.5913 6.47277 16.4891 4.38938 20.7324 3.54533C24.9757 2.70128 29.3741 3.13448 33.3712 4.79014C37.3683 6.44581 40.7847 9.24959 43.1884 12.8469C45.592 16.4442 46.875 20.6735 46.875 25C46.875 30.8016 44.5703 36.3656 40.468 40.468C36.3656 44.5703 30.8016 46.875 25 46.875ZM25 6.25001C21.2916 6.25001 17.6665 7.34968 14.5831 9.40995C11.4996 11.4702 9.0964 14.3986 7.67725 17.8247C6.25811 21.2508 5.8868 25.0208 6.61027 28.658C7.33374 32.2951 9.11951 35.636 11.7417 38.2583C14.364 40.8805 17.7049 42.6663 21.3421 43.3897C24.9792 44.1132 28.7492 43.7419 32.1753 42.3228C35.6014 40.9036 38.5298 38.5004 40.59 35.417C42.6503 32.3335 43.75 28.7084 43.75 25C43.75 20.0272 41.7746 15.2581 38.2582 11.7418C34.7419 8.22545 29.9728 6.25001 25 6.25001Z" fill="#E0E4E8"/>
<path d="M32.1719 34.375L23.4375 25.6406V10.9375H26.5625V24.3438L34.375 32.1719L32.1719 34.375Z" fill="#E0E4E8"/>
</svg>
