<svg width="50" height="50" viewBox="0 0 50 50" fill="none" xmlns="http://www.w3.org/2000/svg">
<path d="M41.5406 10.2906C41.2512 9.99945 40.9069 9.76859 40.5277 9.61142C40.1484 9.45425 39.7418 9.37389 39.3313 9.375H26.5625V3.125H23.4375V18.75H10.6688C10.2582 18.7489 9.85156 18.8292 9.47231 18.9864C9.09306 19.1436 8.74877 19.3744 8.45937 19.6656L3.125 25L8.45937 30.3344C8.74877 30.6256 9.09306 30.8564 9.47231 31.0136C9.85156 31.1708 10.2582 31.2511 10.6688 31.25H23.4375V46.875H26.5625V21.875H39.3313C39.7418 21.8761 40.1484 21.7958 40.5277 21.6386C40.9069 21.4814 41.2512 21.2506 41.5406 20.9594L46.875 15.625L41.5406 10.2906ZM10.6688 28.125L7.54375 25L10.6688 21.875H23.4375V28.125H10.6688ZM39.3313 18.75H26.5625V12.5H39.3313L42.4563 15.625L39.3313 18.75Z" fill="#E0E4E8"/>
</svg>
