<svg width="50" height="50" viewBox="0 0 50 50" fill="none" xmlns="http://www.w3.org/2000/svg">
<path d="M12.5 43.75V34.1094L16.5469 38.1406L18.75 35.9375L10.9375 28.125L3.125 35.9375L5.32813 38.1406L9.375 34.1094V43.75C9.375 45.4734 10.7766 46.875 12.5 46.875H26.5625V43.75H12.5ZM39.0625 26.5625C34.6094 26.5625 31.25 28.5781 31.25 31.25V42.1875C31.25 44.8594 34.6094 46.875 39.0625 46.875C43.5156 46.875 46.875 44.8594 46.875 42.1875V31.25C46.875 28.5781 43.5156 26.5625 39.0625 26.5625ZM39.0625 29.6875C42.0875 29.6875 43.75 30.8609 43.75 31.25C43.75 31.6391 42.0875 32.8125 39.0625 32.8125C36.0375 32.8125 34.375 31.6391 34.375 31.25C34.375 30.8609 36.0375 29.6875 39.0625 29.6875ZM39.0625 43.75C36.0375 43.75 34.375 42.5766 34.375 42.1875V35.0312C35.6656 35.5984 37.2656 35.9375 39.0625 35.9375C40.8594 35.9375 42.4594 35.5984 43.75 35.0312V42.1875C43.75 42.5766 42.0875 43.75 39.0625 43.75ZM44.6719 11.8594L40.625 15.8906V6.25C40.625 4.52656 39.2234 3.125 37.5 3.125H23.4375V6.25H37.5V15.8906L33.4531 11.8594L31.25 14.0625L39.0625 21.875L46.875 14.0625L44.6719 11.8594ZM10.9375 23.4375C15.3906 23.4375 18.75 21.4219 18.75 18.75V7.8125C18.75 5.14062 15.3906 3.125 10.9375 3.125C6.48438 3.125 3.125 5.14062 3.125 7.8125V18.75C3.125 21.4219 6.48438 23.4375 10.9375 23.4375ZM10.9375 6.25C13.9625 6.25 15.625 7.42344 15.625 7.8125C15.625 8.20156 13.9625 9.375 10.9375 9.375C7.9125 9.375 6.25 8.20156 6.25 7.8125C6.25 7.42344 7.9125 6.25 10.9375 6.25ZM6.25 11.5938C7.54063 12.1609 9.14062 12.5 10.9375 12.5C12.7344 12.5 14.3344 12.1609 15.625 11.5938V18.75C15.625 19.1391 13.9625 20.3125 10.9375 20.3125C7.9125 20.3125 6.25 19.1391 6.25 18.75V11.5938Z" fill="#E0E4E8"/>
</svg>
