<?xml version="1.0" standalone="no"?>
<!DOCTYPE svg PUBLIC "-//W3C//DTD SVG 20010904//EN"
 "http://www.w3.org/TR/2001/REC-SVG-20010904/DTD/svg10.dtd">
<svg version="1.0" xmlns="http://www.w3.org/2000/svg"
 width="249.000000pt" height="249.000000pt" viewBox="0 0 249.000000 249.000000"
 preserveAspectRatio="xMidYMid meet">
<metadata>
Created by potrace 1.14, written by Peter Selinger 2001-2017
</metadata>
<g transform="translate(0.000000,249.000000) scale(0.100000,-0.100000)"
fill="#000000" stroke="none">
<path d="M1143 2478 c-282 -38 -549 -171 -738 -370 -91 -95 -108 -116 -162
-200 -225 -347 -253 -797 -75 -1188 17 -38 101 -182 111 -190 3 -3 19 -23 35
-45 50 -69 195 -203 280 -259 313 -207 631 -264 1015 -182 62 14 165 52 256
97 99 48 271 168 282 195 3 9 -45 63 -123 139 -127 124 -128 125 -148 106 -33
-29 -156 -106 -211 -131 -67 -30 -168 -59 -235 -68 -87 -11 -249 -5 -320 12
-36 9 -74 18 -84 21 -11 2 -53 20 -93 39 -259 124 -434 341 -496 620 -21 92
-17 286 7 381 40 156 133 313 250 422 82 77 131 111 226 156 124 59 209 79
350 83 218 6 403 -50 560 -169 30 -23 62 -48 71 -54 15 -11 34 4 143 112 69
68 126 128 126 132 0 9 -119 110 -150 127 -10 6 -45 28 -79 48 -110 67 -290
136 -404 154 -23 3 -53 8 -67 11 -52 8 -267 9 -327 1z"/>
<path d="M1018 1699 c-9 -6 -12 -92 -14 -304 -2 -343 -13 -313 113 -305 l78 5
95 132 c52 73 98 134 101 137 3 3 5 -55 4 -130 -1 -113 2 -137 14 -143 26 -12
181 -7 189 6 4 7 7 144 7 305 l0 293 -94 0 -95 0 -96 -142 c-53 -78 -98 -144
-101 -147 -3 -3 -4 60 -3 140 0 96 -3 147 -10 152 -15 9 -174 10 -188 1z"/>
<path d="M1777 1693 c-3 -5 -7 -67 -8 -138 -4 -198 -22 -280 -65 -291 -20 -5
-24 -13 -25 -43 0 -20 -1 -56 -3 -80 -2 -54 13 -71 56 -65 90 13 153 55 189
127 28 53 49 157 49 240 l0 68 68 -3 67 -3 1 -200 c0 -110 1 -206 2 -212 3
-18 188 -18 198 -1 11 17 14 581 4 593 -10 12 -526 20 -533 8z"/>
<path d="M1026 961 c-1 -3 -2 -46 -2 -96 l1 -90 30 0 c27 0 30 3 33 37 l3 37
21 -21 21 -21 19 23 18 22 0 -41 c0 -38 2 -41 28 -42 60 -2 108 3 121 14 21
17 65 16 78 -2 12 -17 65 -21 69 -5 2 5 -12 49 -29 98 l-32 90 -39 1 c-21 0
-44 -4 -51 -10 -7 -5 -25 -47 -40 -92 -16 -46 -31 -81 -34 -78 -3 3 -4 44 -3
90 2 47 -1 85 -5 86 -56 7 -61 5 -78 -28 -22 -41 -29 -41 -45 -3 -7 17 -15 30
-19 31 -31 5 -62 5 -65 0z m344 -92 c0 -11 -7 -19 -16 -19 -11 0 -14 5 -10 16
3 9 6 20 6 25 0 6 5 7 10 4 6 -3 10 -15 10 -26z"/>
<path d="M1553 962 c-12 -2 -33 -15 -47 -29 -25 -25 -28 -46 -17 -125 2 -12
47 -39 76 -44 33 -6 96 13 112 35 23 29 15 41 -27 41 -22 0 -40 -4 -40 -10 0
-5 -11 -10 -24 -10 -20 0 -24 6 -28 35 -5 48 13 64 50 44 15 -8 34 -14 42 -13
8 1 21 2 28 3 18 2 15 26 -8 46 -21 19 -80 33 -117 27z"/>
<path d="M1708 936 c-6 -32 -2 -36 34 -36 30 0 29 3 32 -90 1 -44 2 -45 34
-46 17 -1 33 4 34 10 0 6 2 29 3 51 2 22 3 48 4 58 1 12 10 17 31 17 17 0 31
5 31 10 6 46 9 45 -97 48 -101 3 -102 3 -106 -22z"/>
<path d="M1947 943 c-3 -10 -4 -54 -3 -98 l1 -80 93 -2 c50 -1 93 3 93 8 6 43
5 44 -50 44 -30 0 -56 5 -58 11 -2 7 13 10 42 9 49 -3 60 5 50 34 -4 15 -14
19 -43 18 -20 -1 -38 2 -39 8 -2 5 18 9 45 9 39 0 48 4 53 21 3 11 4 23 3 26
-2 4 -44 7 -93 8 -78 2 -90 0 -94 -16z"/>
<path d="M2186 953 c-3 -4 -6 -49 -6 -100 l0 -94 38 3 c33 3 37 6 36 31 -1 24
2 27 32 27 19 0 36 -1 38 -2 3 -2 16 8 30 21 30 29 33 60 8 91 -15 18 -30 22
-94 25 -41 2 -78 1 -82 -2z m121 -66 c-4 -14 -31 -17 -48 -6 -12 8 -12 10 0
18 17 11 53 2 48 -12z"/>
</g>
</svg>
