<svg width="140" height="24" viewBox="0 0 140 24" fill="none" xmlns="http://www.w3.org/2000/svg">
<path d="M58.473 9.99972L57.2021 10.0293V4.96293H58.6586C59.7619 4.96293 60.1241 5.76985 60.1241 7.53272C60.1241 9.2956 59.7168 9.99972 58.473 9.99972ZM64.8855 21.5509V16.121C64.8855 13.546 63.9639 12.0491 61.9944 11.6971C64.2835 11.0919 64.91 9.17739 64.91 6.72581C64.91 3.26944 63.6636 1.12109 59.6201 1.12109H52.3788L52.3827 23.5001H57.2034V13.7696H58.3918C59.5518 13.7696 60.1022 14.5675 60.1022 15.6327V21.5856C60.1022 22.575 60.302 23.3048 60.4386 23.4988H65.3147C65.1446 23.3138 64.8855 22.5416 64.8855 21.5509Z" fill="black"/>
<path d="M10.8104 19.6943C11.6727 18.9773 11.8209 18.0894 11.8209 17.2928V13.9469H7.13431V18.4865C7.13431 19.1366 6.60713 19.6634 5.95621 19.6634C5.3053 19.6634 4.82065 19.1366 4.82065 18.4865V5.62593C4.82065 4.97706 5.3053 4.45025 5.95621 4.45025C6.60713 4.45025 7.13431 4.97706 7.13431 5.62593V10.195H11.8145V5.45504C11.8145 2.83642 10.0976 0.681653 5.91626 0.676514C1.62278 0.676514 0 2.84156 0 5.46018V18.8886C0 21.4841 2.06747 23.4474 4.71109 23.4474H6.16244L10.8104 19.6943Z" fill="black"/>
<path d="M133.166 9.98825H131.886V4.95146H133.35C134.451 4.95146 134.816 5.75837 134.816 7.51996C134.816 9.28413 134.411 9.98825 133.166 9.98825ZM139.573 21.5395V16.1082C139.573 13.5346 138.656 12.0377 136.686 11.6843C138.975 11.0804 139.602 9.1672 139.602 6.7169C139.602 3.25797 138.351 1.10962 134.312 1.10962H127.069V23.4886H131.902V13.7594H133.081C134.244 13.7594 134.788 14.5561 134.788 15.6225V21.5754C134.788 22.5661 134.992 23.2946 135.128 23.4886H140C139.832 23.3023 139.573 22.5288 139.573 21.5395Z" fill="black"/>
<path d="M117.031 15.4362L118.286 4.99384L119.539 15.4362H117.031ZM121.515 1.06592H115.033L111.182 23.4873H116.062L116.54 19.5311L120.027 19.5286L120.502 23.4873H125.386L121.515 1.06592Z" fill="black"/>
<path d="M89.1924 23.4848V1.11475H94.1368V19.2382H99.2887V23.4848H89.1924Z" fill="black"/>
<path d="M86.5733 1.11597H81.6328V23.486H86.5733V1.11597Z" fill="black"/>
<path d="M89.1924 23.4848V1.11475H94.1368V19.2382H99.2887V23.4848H89.1924Z" fill="black"/>
<path d="M100.478 23.4848V1.11475H105.419V19.2382H110.573V23.4848H100.478Z" fill="black"/>
<path d="M73.5433 10.6525L72.0687 10.6345V4.96037H73.5356C74.7884 4.96037 74.9985 5.81611 74.9985 7.86424C74.9985 9.98046 74.7871 10.6525 73.5433 10.6525ZM74.7871 1.11597H67.2532V23.495H72.0842V14.6138H74.7871C79.225 14.6138 79.9738 11.7947 79.9738 7.86424C79.9751 3.93503 79.2262 1.11597 74.7871 1.11597Z" fill="black"/>
<path d="M44.0317 5.37926V9.81215H49.1475V14.1949H44.0317V19.1623L50.1103 19.1598V23.4783L39.0834 23.4834V1.11084H39.0782H49.9105V5.37926H44.0317Z" fill="black"/>
<path d="M29.2861 20.2213V5.46423H26.0509V1.11743H37.7571V5.46423H34.5063V23.4206H33.1194L29.2861 20.2213Z" fill="black"/>
<path d="M31.3832 23.454L19.9838 13.9316L8.17188 23.454H31.3832Z" fill="#FFC400"/>
<path d="M18.7232 11.3656L19.9851 4.93596L21.2405 11.3656H18.7232ZM23.2358 1.14038H16.706L12.9023 18.1563L19.9864 12.4552L27.372 18.6252L23.2358 1.14038Z" fill="black"/>
</svg>
