<svg width="92" height="91" viewBox="0 0 92 91" fill="none" xmlns="http://www.w3.org/2000/svg">
<g clip-path="url(#clip0_113_1172)">
<path fill-rule="evenodd" clip-rule="evenodd" d="M75.4349 51.2983C77.7917 52.3294 79.1905 52.0353 80.958 51.8875C82.7614 51.7407 84.1234 50.7828 84.1234 49.1998C84.1234 47.6174 83.1665 47.6537 81.1417 46.5499C79.08 45.4452 76.2824 44.6719 76.2824 41.727C76.2824 37.9346 80.5166 35.9466 83.9034 35.9098C86.5911 35.8725 88.1009 36.0571 90.1625 36.4989L89.6838 39.7753C87.8426 39.2234 85.5605 39.0388 84.0507 39.1861C82.5414 39.3702 80.958 39.9226 80.958 41.3214C80.958 43.2358 88.9837 44.4878 88.9837 48.8321C88.9837 53.2136 84.7863 55.0912 81.5463 55.3485C78.3072 55.6067 76.6501 55.2757 74.1834 54.6866L75.4349 51.2983ZM54.8174 55.3121L57.6897 36.2775H62.6226L61.6289 43.2726H67.6665L68.6612 36.2775H73.8156L70.9065 55.3121H65.7522L67.151 46.5495H61.1133L59.7145 55.3121H54.8174ZM52.0934 53.8755C50.3097 54.767 48.3439 55.2335 46.3498 55.2385C43.8095 55.2385 41.7478 54.4279 40.1276 52.8081C38.5078 51.1888 37.7345 49.0903 37.7345 46.5131C37.7345 45.0402 37.9923 43.6782 38.5078 42.3893C40.4958 37.7137 45.1346 35.9834 49.8471 35.9834C51.4674 35.9834 53.0872 36.1675 54.6706 36.6462L54.155 40.0699C52.7921 39.7385 51.3933 39.4807 49.9949 39.4807C45.8711 39.4807 42.5947 42.3157 42.5947 46.5868C42.5947 49.8627 43.9204 51.152 47.0131 51.152C49.1116 51.152 51.2096 50.7101 52.7926 49.3108L52.0934 53.8755ZM20.0629 36.2775H25.1436L23.1556 48.0961C22.9715 49.164 22.7873 51.5197 25.1436 51.5197C27.8308 51.5197 28.6046 50.1577 29.1196 48.1329C29.2669 47.4332 29.3774 46.6963 29.5247 45.9603L31.1813 36.2775H35.8938L34.1267 48.1329C33.3166 53.5077 29.451 55.2753 25.0695 55.2753C20.7252 55.2753 17.5588 53.1768 18.2948 48.1688L20.0629 36.2775ZM1.83793 54.9802L4.67289 36.388H17.0438L16.6019 40.2904H8.68621L8.28114 43.7513H15.0921L14.6134 47.2855H7.80244L6.62407 54.9802H1.83793ZM59.3463 17.4644C43.6253 12.6782 26.7629 25.7851 20.872 32.6697C21.9767 25.1591 37.219 3.80511 60.34 9.62232L59.3463 17.4644ZM31.8809 73.5361C47.675 78.3227 64.5011 65.2153 70.3542 58.3312C69.2495 65.8413 54.0446 87.1958 30.8867 81.3781L31.8809 73.5361Z" fill="#2761AB"/>
<path fill-rule="evenodd" clip-rule="evenodd" d="M41.3059 28.2146C54.4123 22.0292 70.3174 26.8158 74.9194 33.7004C72.2686 27.9937 65.5317 14.1508 42.9257 19.3788L41.3059 28.2146ZM49.9949 62.7487C36.888 68.9341 20.9093 64.1475 16.3073 57.3002C18.9581 63.0069 25.6959 76.8498 48.3378 71.6218L49.9949 62.7487Z" fill="#CC2229"/>
</g>
<defs>
<clipPath id="clip0_113_1172">
<rect width="91" height="91" fill="white" transform="translate(0.5)"/>
</clipPath>
</defs>
</svg>
