<svg width="166" height="112" viewBox="0 0 166 112" fill="none" xmlns="http://www.w3.org/2000/svg">
<path d="M20.829 33.1094H145.167V78.8946H20.829V33.1094Z" fill="#FCAF26"/>
<path d="M137.951 70.9032C137.951 71.9466 137.272 72.8021 136.448 72.8021H29.2843C28.4566 72.8021 27.7817 71.9466 27.7817 70.9032V41.5444C27.7817 40.501 28.4566 39.6455 29.2843 39.6455H136.444C137.272 39.6455 137.947 40.497 137.947 41.5444L137.951 70.9032Z" fill="#231F20"/>
<path d="M126.355 60.4895C126.359 60.5455 126.363 60.6054 126.363 60.6614V60.6494C126.363 60.5974 126.359 60.5415 126.355 60.4895Z" fill="#204595"/>
<path d="M55.5458 67.1495C53.7461 68.8725 51.0805 69.2642 47.15 69.2642H41.5683C33.7497 69.2642 31.2666 67.4333 31.2666 61.121V57.679H38.7583C38.7583 58.0028 38.7201 58.3266 38.7201 58.6105C38.7201 61.7646 39.5139 62.772 42.6464 62.772H46.2501C49.1322 62.772 49.6373 61.6967 49.6373 59.0782V42.9036H57.6342V61.6247C57.6384 63.8834 56.8065 65.9302 55.5458 67.1495ZM87.8517 52.0463C87.8517 49.9675 86.5189 49.104 83.6368 49.104H77.2231C72.0362 49.104 70.7755 49.7836 70.7755 54.233V57.8589C70.7755 61.9485 72.5413 62.772 77.2231 62.772H81.871C86.3024 62.772 88.0681 62.3043 88.0681 59.1861V58.8983H96.1754C96.2093 59.5819 96.2475 60.1895 96.2475 60.8012C96.2475 64.0273 95.492 66.182 93.6159 67.5453C91.6336 69.0164 88.5011 69.3042 83.9254 69.3042H74.9905C70.8477 69.3042 67.9274 69.1243 65.6608 67.3654C63.4621 65.6424 62.6344 63.2757 62.6344 59.7258V52.622C62.6344 44.8025 66.0555 42.5798 74.9905 42.5798H83.9254C88.5011 42.5798 91.5997 42.7957 93.5098 44.2668C95.2034 45.5581 95.9249 47.7088 95.9249 50.831C95.9249 51.2987 95.9249 51.7984 95.8867 52.3022H87.8517V52.0463ZM101.392 68.9764V42.9036H124.988C130.858 42.9036 133.706 45.2703 133.706 50.1834C133.706 52.9818 132.484 54.7008 129.852 55.7082C133.167 56.2439 134.606 58.1827 134.606 61.9125C134.606 66.9336 132.013 68.9764 126.21 68.9764H101.392ZM125.493 50.899C125.493 49.6077 124.665 48.7482 123.439 48.7482H109.389V53.0497H123.439C124.771 53.0537 125.493 52.2982 125.493 50.899ZM126.359 60.6573C126.359 59.2581 125.493 58.3626 124.16 58.3626H109.389V63.0599H124.16C125.565 63.0599 126.359 62.1964 126.359 60.6573Z" fill="white"/>
<path d="M31.2666 42.7278H42.1583V53.1217H31.2666V42.7278Z" fill="#FCAF26"/>
<path d="M39.2252 47.9968C39.2252 47.9968 39.4035 47.9888 39.4544 47.9888C39.5054 47.9848 39.603 47.9808 39.6582 48.0927C39.6752 48.1207 39.7643 48.3966 39.777 48.4285C39.7898 48.4605 39.8152 48.6124 39.6964 48.6364C39.6752 48.6404 39.4629 48.6804 39.4629 48.6804L39.2252 47.9968ZM38.8178 46.7295C38.8178 46.7295 39.0512 46.7455 39.1064 46.7495C39.1616 46.7535 39.204 46.7815 39.2252 46.8295C39.238 46.8615 39.3271 47.1133 39.3356 47.1413C39.3441 47.1693 39.3908 47.3212 39.2592 47.3252C39.238 47.3252 39.0088 47.3252 39.0088 47.3252L38.8178 46.7295ZM38.0028 46.002C38.0028 46.002 38.979 46.1419 39.0682 46.1539C39.4757 46.2178 39.6497 46.5456 39.7006 46.6976C39.7176 46.7455 39.8322 47.1013 39.845 47.1413C39.9553 47.4411 39.6752 47.593 39.6752 47.593C39.6752 47.593 39.9978 47.653 40.1039 47.9088C40.1039 47.9088 40.3076 48.5005 40.3288 48.5605C40.3501 48.6204 40.4944 49.0922 39.9978 49.2681C39.9298 49.292 39.1361 49.5039 39.1361 49.5039L38.0028 46.002ZM34.0553 45.4143L35.6513 45.6542L35.9102 46.5217L35.5367 46.4897C35.5367 46.4897 36.4535 49.42 36.4875 49.5079C36.6021 49.8397 36.6742 50.1795 36.1691 50.3434C36.1054 50.3634 35.6343 50.4993 35.5791 50.5113C35.2905 50.5793 34.9212 50.5793 34.7769 50.1316L34.1911 48.3206L34.9085 48.2686C34.9085 48.2686 35.2056 49.1961 35.2268 49.2681C35.2905 49.4639 35.3329 49.5359 35.5367 49.4919C35.6852 49.4559 35.681 49.396 35.6428 49.2681C35.6258 49.2121 34.7641 46.4257 34.7641 46.4257L34.3567 46.3937L34.0553 45.4143Z" fill="#231F20"/>
<path d="M34.0553 45.4143L35.6513 45.6542L35.9102 46.5217L35.5367 46.4897C35.5367 46.4897 36.4535 49.42 36.4875 49.5079C36.6021 49.8397 36.6742 50.1795 36.1691 50.3434C36.1054 50.3634 35.6343 50.4993 35.5791 50.5113C35.2905 50.5793 34.9212 50.5793 34.7769 50.1316L34.1911 48.3206L34.9085 48.2686C34.9085 48.2686 35.2056 49.1961 35.2268 49.2681C35.2905 49.4639 35.3329 49.5359 35.5367 49.4919C35.6852 49.4559 35.681 49.396 35.6428 49.2681C35.6258 49.2121 34.7641 46.4257 34.7641 46.4257L34.3567 46.3937L34.0553 45.4143Z" stroke="#231F20" stroke-width="0.00802806" stroke-miterlimit="10"/>
<path d="M36.4408 45.758C36.5087 45.77 37.0223 45.85 37.1114 45.866C37.1963 45.882 37.676 45.9579 37.8033 46.3977C37.833 46.5056 38.0877 47.2771 38.0877 47.2771L37.4807 47.2731C37.4807 47.2731 37.3661 46.9014 37.3449 46.8374C37.2855 46.6815 37.2812 46.6375 37.0987 46.6135C36.9162 46.5935 36.9247 46.6695 36.9671 46.7974C36.9883 46.8654 37.5401 48.6843 37.5656 48.7603C37.6293 48.9682 37.6462 49.0481 37.8415 49.0121C38.0113 48.9722 37.9773 48.8842 37.9349 48.7323C37.8712 48.5324 37.8118 48.3365 37.7481 48.1366L38.3509 48.0927C38.3509 48.0927 38.6565 49.0601 38.6734 49.1041C38.6904 49.1481 38.8178 49.5398 38.4527 49.7077C38.406 49.7277 38.406 49.7317 38.3593 49.7477C38.3127 49.7637 37.8245 49.8996 37.7778 49.9116C37.7311 49.9236 37.2685 50.0675 37.1157 49.6078C37.0987 49.5638 36.1182 46.3577 36.0672 46.2018C35.9696 45.9299 36.063 45.7061 36.4408 45.758Z" fill="#231F20"/>
<path d="M36.4408 45.758C36.5087 45.77 37.0223 45.85 37.1114 45.866C37.1963 45.882 37.676 45.9579 37.8033 46.3977C37.833 46.5056 38.0877 47.2771 38.0877 47.2771L37.4807 47.2731C37.4807 47.2731 37.3661 46.9014 37.3449 46.8374C37.2855 46.6815 37.2812 46.6375 37.0987 46.6135C36.9162 46.5935 36.9247 46.6695 36.9671 46.7974C36.9883 46.8654 37.5401 48.6843 37.5656 48.7603C37.6293 48.9682 37.6462 49.0481 37.8415 49.0121C38.0113 48.9722 37.9773 48.8842 37.9349 48.7323C37.8712 48.5324 37.8118 48.3365 37.7481 48.1366L38.3509 48.0927C38.3509 48.0927 38.6565 49.0601 38.6734 49.1041C38.6904 49.1481 38.8178 49.5398 38.4527 49.7077C38.406 49.7277 38.406 49.7317 38.3593 49.7477C38.3127 49.7637 37.8245 49.8996 37.7778 49.9116C37.7311 49.9236 37.2685 50.0675 37.1157 49.6078C37.0987 49.5638 36.1182 46.3577 36.0672 46.2018C35.9696 45.9299 36.063 45.7061 36.4408 45.758Z" stroke="#231F20" stroke-width="0.00802806" stroke-miterlimit="10"/>
<path d="M33.4101 44.9064C33.7115 44.9543 38.9196 45.7979 39.1488 45.8378C39.3823 45.8778 39.7686 45.9298 39.9341 46.4135C39.9638 46.5094 40.6727 48.6122 40.7024 48.7042C40.7321 48.7961 40.9358 49.2758 40.3543 49.4557C40.2694 49.4837 35.3711 51.0028 35.2523 51.0388C35.1334 51.0748 34.6708 51.2667 34.4798 50.603C34.4798 50.603 32.9856 45.8858 32.9177 45.6739C32.8626 45.502 32.8201 45.3621 32.8116 45.2542C32.7819 44.8664 33.0238 44.8544 33.2191 44.8824C33.2955 44.8904 33.3634 44.8984 33.4101 44.9064ZM33.2743 44.6425C33.4059 44.6625 39.0937 45.598 39.238 45.618C39.3865 45.6419 39.9426 45.7019 40.1676 46.3375C40.21 46.4615 40.9189 48.5802 40.9528 48.6842C41.0759 49.0759 41.025 49.4837 40.5071 49.6596C40.3373 49.7156 35.456 51.2587 35.3966 51.2787C35.2608 51.3226 34.5477 51.6384 34.2845 50.8109C34.2845 50.8109 32.7055 45.8658 32.6588 45.7139C32.5867 45.482 32.54 45.2862 32.54 45.1422C32.54 44.5026 33.1469 44.6305 33.2743 44.6425Z" fill="#231F20"/>
</svg>
