<svg width="124" height="80" viewBox="0 0 124 80" fill="none" xmlns="http://www.w3.org/2000/svg">
<path d="M63.258 0.259521C72.778 0.259521 82.468 2.25152 91.58 6.56752C94.81 14.1039 96.272 21.8395 96.272 29.4091C96.272 36.9455 94.81 44.6147 91.614 52.2175C82.468 56.5335 72.812 58.5255 63.258 58.5255C53.738 58.5255 44.082 56.5335 34.902 52.2175C31.672 44.6147 30.244 36.9455 30.244 29.4091C30.244 21.8395 31.706 14.1039 34.936 6.56752C44.048 2.28472 53.772 0.259521 63.258 0.259521Z" fill="#247218"/>
<path d="M36.908 50.3915C34.256 43.8843 32.794 36.8127 32.794 29.4091C32.794 22.0055 34.256 14.9007 36.942 8.39351C44.864 4.77471 53.874 2.74951 63.292 2.74951C72.71 2.74951 81.72 4.77471 89.642 8.39351C92.328 14.9339 93.79 22.0055 93.79 29.4091C93.79 36.8127 92.328 43.8843 89.676 50.3915C81.754 54.0103 72.744 56.0687 63.326 56.0687C53.874 56.0687 44.83 54.0103 36.908 50.3915Z" fill="#FCDF17"/>
<path d="M88.112 49.0302C86.446 46.341 84.202 44.183 84.202 44.183C84.168 44.183 83.726 44.0502 83.726 44.0502C78.966 42.6226 75.872 41.5602 74.512 40.863C72.608 39.9002 70.636 37.5762 70.398 37.3106C68.188 37.1446 66.352 37.1778 64.584 37.377L63.462 37.5098C61.32 37.7754 59.11 38.0742 56.934 37.709C55.506 37.4766 54.078 37.045 52.616 36.547C50.338 35.8166 47.992 35.053 45.306 35.053H45.204L45.238 35.1526C45.85 36.3146 48.264 39.8338 51.256 40.7966C51.936 40.9626 52.412 41.1286 52.616 41.2946C52.616 41.2946 53.772 43.5854 54.078 44.2162C52.208 43.3862 46.394 40.4978 41.736 34.9534C41.736 34.887 41.6 33.7914 41.6 33.559C44.388 32.5298 50.644 31.9654 51.358 31.899H51.426L51.46 31.8326C51.834 28.6122 52.616 26.0226 54.078 23.2006C54.112 23.101 54.146 23.0346 54.146 22.9682C54.146 22.935 54.146 22.8686 54.112 22.8354C54.044 22.6694 53.84 22.6694 53.806 22.6694C53.806 22.6694 49.76 21.9722 49.522 21.939C49.488 21.8726 49.08 20.6774 49.046 20.5778C52.14 19.449 55.914 18.4198 58.09 17.955C58.464 17.3906 58.566 17.0586 58.566 16.6934C58.566 16.3614 58.396 16.0958 58.09 15.8966C56.56 14.8674 51.698 15.4982 46.802 17.3242C46.802 17.291 46.802 17.291 46.768 17.291C47.788 16.5606 49.59 15.4318 50.95 14.8342L51.018 14.801V14.7678C50.644 13.5726 48.264 12.643 47.992 12.5434C47.992 12.5102 47.992 12.477 47.992 12.4438C50.44 12.2778 52.038 13.4066 52.548 14.2034L52.582 14.2366H52.616C52.922 14.137 54.044 13.805 55.234 13.6722H55.302L55.268 13.6058C54.86 11.5806 52.888 10.2194 52.208 9.78785C52.242 9.75464 52.242 9.75465 52.242 9.72145C54.588 9.88745 56.764 11.8794 57.24 13.5394V13.5726H57.274C57.92 13.6058 58.668 13.6722 59.178 13.7386H59.246L59.28 13.7054C59.484 13.2738 59.552 12.809 59.552 12.311C59.552 10.817 58.668 9.19025 57.614 8.16105C57.648 8.12785 57.648 8.09464 57.682 8.09464C60.776 9.22344 61.558 11.4146 61.558 13.4398C61.558 14.8674 61.184 16.1954 60.912 17.0586L60.81 17.4238C60.81 17.4238 65.366 16.8926 65.672 16.8594C65.196 17.4238 64.21 18.453 62.204 19.5154L60.164 19.2498H60.096L60.062 19.3162C59.926 19.7146 58.736 23.433 58.702 26.1554C58.702 27.1514 59.008 27.9482 59.586 28.4794C60.606 29.4422 62.306 29.5086 63.496 29.4422C68.562 29.2762 72.506 29.575 75.26 30.3718L75.43 30.405L75.464 30.3718C75.634 30.1062 75.77 29.6414 75.77 29.0106C75.77 27.8154 75.294 26.0226 73.628 24.0306C73.662 24.0306 73.662 23.9974 73.662 23.9974C73.934 24.1302 78.388 26.6202 78.966 30.3386C78.864 30.3718 76.824 31.1686 76.824 31.1686L76.892 31.235C78.762 33.1606 79.408 35.4846 79.952 37.3438C80.36 38.8046 80.87 39.7674 81.516 40.2986C82.264 40.9294 85.154 42.2906 86.004 42.6558C86.718 43.6518 87.942 45.511 88.86 46.9718C90.798 41.3278 91.784 35.4846 91.784 29.4754C91.784 22.7026 90.526 16.0958 88.044 9.82105C80.394 6.43465 71.826 4.64185 63.224 4.64185C54.622 4.64185 46.054 6.43465 38.404 9.82105C35.922 16.0958 34.664 22.7026 34.664 29.4754C34.664 36.215 35.922 42.8218 38.404 49.0966C46.054 52.483 54.622 54.2758 63.258 54.2758C71.894 54.2094 80.462 52.4166 88.112 49.0302Z" fill="url(#paint0_radial_113_818)"/>
<path d="M0.799988 76.8188C0.799988 76.8188 2.29599 77.35 3.99599 77.35C5.79799 77.35 6.88599 77.1176 7.53199 76.4868C8.04199 75.9888 8.24599 75.1256 8.21199 73.8972V65.5972H10.864V74.2624C10.83 78.0804 8.92599 79.7404 4.47199 79.7404C2.32999 79.7404 0.799988 79.4084 0.799988 79.4084V76.8188Z" fill="#247218"/>
<path d="M19.194 77.4496C17.664 77.4496 15.046 76.9848 15.046 73.864C15.046 71.6396 16.542 70.3448 19.194 70.3448C21.812 70.3448 23.342 71.6396 23.342 73.864C23.308 76.9848 20.724 77.4496 19.194 77.4496ZM12.394 73.9968C12.394 76.6528 14.162 79.7404 19.16 79.7404C24.158 79.7404 25.926 76.6528 25.926 73.9968C25.926 70.3116 23.376 68.0872 19.16 68.0872C14.944 68.0872 12.394 70.3116 12.394 73.9968Z" fill="#247218"/>
<path d="M37.044 68.3528V72.7684H30.176V68.3528H27.524V79.4748H30.176V75.0592H37.044V79.4748H39.696V68.3528H37.044Z" fill="#247218"/>
<path d="M77.436 77.184V75.026H83.522V72.7684H77.436V70.6104H85.324V68.3196H74.818V79.4416H85.324V77.184H77.436Z" fill="#247218"/>
<path d="M65.366 65.5972C70.432 65.5972 73.458 68.22 73.458 72.6356C73.458 75.7896 71.35 79.4748 65.366 79.4748H62.034H58.974V65.5972H62.034H65.366ZM61.626 67.888V77.184H65.366C67.406 77.184 70.806 76.5864 70.806 72.5028C70.806 69.5812 68.834 67.888 65.366 67.888H61.626Z" fill="#247218"/>
<path d="M106.982 73.1336C107.526 73.1336 108.444 72.9676 108.444 71.872C108.444 71.0752 107.9 70.6436 106.982 70.6436H102.154V73.1336H106.982ZM111.47 79.4748H108.274L105.078 75.3912H101.984V79.4416H99.332V68.3196H106.812C109.396 68.3196 110.926 69.6476 110.926 71.872C110.926 73.2 110.178 74.7272 108.172 75.192L111.47 79.4748Z" fill="#247218"/>
<path d="M51.358 79.4748L44.49 71.9052V79.4748H41.838V68.3528H44.456L51.358 75.856V68.3528H54.01V79.4748H51.358Z" fill="#247218"/>
<path d="M89.574 77.184V75.026H95.66V72.7684H89.574V70.6104H97.462V68.3196H86.956V79.4416H97.462V77.184H89.574Z" fill="#247218"/>
<path d="M115.89 77.184V75.026H121.976V72.7684H115.89V70.6104H123.778V68.3196H113.272V79.4416H123.778V77.184H115.89Z" fill="#247218"/>
<defs>
<radialGradient id="paint0_radial_113_818" cx="0" cy="0" r="1" gradientUnits="userSpaceOnUse" gradientTransform="translate(64.6154 25.1566) rotate(-92.116) scale(29.5841 31.0542)">
<stop stop-color="#5AAD35"/>
<stop offset="0.6753" stop-color="#438E2F"/>
<stop offset="1" stop-color="#2C702A"/>
</radialGradient>
</defs>
</svg>
