<svg width="141" height="54" viewBox="0 0 141 54" fill="none" xmlns="http://www.w3.org/2000/svg">
<path fill-rule="evenodd" clip-rule="evenodd" d="M76.3108 46.1452C41.339 46.1452 12.9914 36.1123 12.9914 23.7319C12.9914 12.663 35.6654 3.4714 65.4727 1.65137C29.8041 2.60219 1.67108 13.5813 1.67108 26.9963C1.67108 41.019 32.486 52.3964 70.501 52.3964C108.513 52.3964 139.329 41.019 139.329 26.9963C139.329 26.6878 139.308 26.3868 139.28 26.0847C135.962 37.3585 109.037 46.1452 76.3108 46.1452Z" fill="#FFC731"/>
<path fill-rule="evenodd" clip-rule="evenodd" d="M82.1183 51.3521C44.1059 51.3521 13.2907 40.0974 13.2907 26.2111C13.2907 14.1073 36.6908 4.00443 67.8626 1.60352C31.0704 2.11691 1.67059 13.2837 1.67059 26.9962C1.67059 41.0189 32.4856 52.3962 70.5005 52.3962C78.1964 52.3962 85.6022 51.9287 92.5147 51.0705C89.1238 51.2567 85.6553 51.3521 82.1183 51.3521Z" fill="#0CB5DD"/>
<path fill-rule="evenodd" clip-rule="evenodd" d="M44.817 25.7635L45.7949 22.7082L45.8235 22.7086L46.729 25.7639L44.817 25.7635ZM45.1317 19.3887V19.3904C44.7034 19.3979 44.3258 19.6046 44.0779 19.9215L40.5507 29.3046L43.6822 29.305L44.1353 27.8895H47.3517L47.7761 29.305H51.0065L47.3251 19.389L45.1317 19.3887Z" fill="#3860A9"/>
<path fill-rule="evenodd" clip-rule="evenodd" d="M59.6647 22.1784C59.6665 22.1767 59.6685 22.1745 59.6703 22.1728L59.9052 21.9177C60.079 21.6876 60.1835 21.4025 60.1835 21.0923L60.1853 21.0919V19.3906H51.6439V21.9325H56.0791L51.6418 26.634C51.4884 26.8407 51.3996 27.0781 51.3744 27.3219V29.3066H60.4128V26.7647H55.441L59.6647 22.1784Z" fill="#3860A9"/>
<path fill-rule="evenodd" clip-rule="evenodd" d="M120.614 23.2623C119.185 22.8754 117.738 22.7221 117.682 22.015C117.682 21.4578 118.376 21.3465 118.8 21.3465C119.113 21.3465 119.467 21.4158 119.722 21.5988C119.976 21.7652 120.148 22.0147 120.09 22.3896L123.037 22.3899C122.954 19.9724 121.012 19.1523 118.815 19.1523C116.732 19.1523 114.734 20.1385 114.734 22.4299C114.734 24.4315 116.563 24.8604 118.163 25.3056C119.907 25.7918 120.345 25.93 120.345 26.4473C120.345 27.1811 119.566 27.3476 119.055 27.3476C118.475 27.3476 117.796 27.2232 117.568 26.6268C117.498 26.4483 117.457 26.2247 117.457 25.9734H114.338C114.367 29.1418 117.638 29.5428 118.786 29.5428C121.042 29.5428 123.462 28.71 123.462 26.1268C123.461 24.3064 122.045 23.6531 120.614 23.2623Z" fill="#3860A9"/>
<path fill-rule="evenodd" clip-rule="evenodd" d="M99.3766 20.2508L98.1446 25.2233H98.1176L96.8965 20.2985C96.7937 19.7929 96.3581 19.4095 95.8308 19.3891L92.2375 19.3887V29.3046L95.1848 29.305V22.945H95.2134L96.9709 29.305H99.2927L101.048 22.945H101.077V29.305H104.027V19.3887H100.429C99.9188 19.4092 99.4962 19.7692 99.3766 20.2508Z" fill="#3860A9"/>
<path fill-rule="evenodd" clip-rule="evenodd" d="M112.515 19.3887V19.3926C112.083 19.3982 111.7 19.6077 111.455 19.9293L109.955 23.0425L108.517 19.9236C108.51 19.9123 108.502 19.9049 108.499 19.8929C108.251 19.5936 107.884 19.3982 107.469 19.3926V19.3887H104.829L108.383 25.6512V29.3046L111.499 29.305V25.6515L115.127 19.389L112.515 19.3887Z" fill="#3860A9"/>
<path fill-rule="evenodd" clip-rule="evenodd" d="M65.0157 25.7635L65.9936 22.7082L66.0219 22.7086L66.9284 25.7639L65.0157 25.7635ZM65.3321 19.3904C65.2793 19.3922 65.2293 19.3961 65.1786 19.4017C65.1555 19.4056 65.1353 19.4109 65.1119 19.4148C65.0849 19.4205 65.0591 19.424 65.0321 19.4318C65.0017 19.4374 64.9738 19.4487 64.9451 19.4569C64.9266 19.4625 64.9108 19.4661 64.8923 19.4738C64.858 19.4869 64.8255 19.501 64.7934 19.5159C64.7822 19.5198 64.772 19.5251 64.7608 19.5289C64.7248 19.5487 64.6906 19.5692 64.6546 19.5887C64.649 19.5925 64.6434 19.5943 64.6399 19.5978C64.6021 19.6212 64.5658 19.6455 64.5315 19.6728C64.5297 19.6745 64.5259 19.6766 64.5242 19.6784C64.4881 19.7074 64.4539 19.7374 64.4196 19.7682V19.7699C64.3854 19.8028 64.3528 19.8353 64.3224 19.8717C64.3186 19.8773 64.3112 19.883 64.3077 19.8886C64.2892 19.9176 64.2717 19.9476 64.2567 19.9766L60.7501 29.3064L63.8816 29.3067L64.3368 27.8913H67.5511L67.9776 29.3067H71.2076L67.5242 19.3908L65.3321 19.3904Z" fill="#3860A9"/>
<path fill-rule="evenodd" clip-rule="evenodd" d="M88.0614 22.833H85.142V19.3887H82.0257V29.3057H85.142V25.3749H88.0614V29.3057H91.1806V19.3887H88.0614V22.833Z" fill="#3860A9"/>
<path fill-rule="evenodd" clip-rule="evenodd" d="M40.1402 19.3887H36.9221V19.3926C36.492 19.3982 36.111 19.6067 35.8648 19.9236L33.5235 22.8047H33.4948V19.3887H30.3784V29.3046L33.4948 29.305V26.3741L34.0276 25.801L36.2893 29.305H40.0504L36.1264 23.6061L40.1402 19.3887Z" fill="#3860A9"/>
<path fill-rule="evenodd" clip-rule="evenodd" d="M81.3466 19.3887H78.1284V19.3926C77.6984 19.3982 77.3191 19.6067 77.073 19.9236L74.7299 22.8047H74.7033V19.3887H71.5848V29.3046L74.7033 29.305V26.3741L75.2344 25.801L77.4977 29.305H81.2588L77.3348 23.6061L81.3466 19.3887Z" fill="#3860A9"/>
</svg>
