<svg width="144" height="27" viewBox="0 0 144 27" fill="none" xmlns="http://www.w3.org/2000/svg">
<path d="M0 6.43311H8.06976V25.6934H0V6.43311Z" fill="#21409A"/>
<path d="M0 25.6934V6.43311H8.06976V25.6934H0ZM12.1018 6.43311H21.0701L16.7386 15.9844L21.4099 25.6876H12.2918L8.06976 15.9844L12.1018 6.43311Z" fill="#21409A"/>
<path d="M12.1018 6.43311H21.0701L16.7386 15.9844L21.4099 25.6876H12.2918L8.06976 15.9844L12.1018 6.43311Z" fill="#21409A"/>
<path d="M30.2976 18.831C31.7837 18.831 32.9933 17.6093 32.9933 16.0954C32.9933 14.5814 31.7894 13.3598 30.2976 13.3598C28.8115 13.3831 27.6192 14.6223 27.6422 16.1363C27.6653 17.621 28.8403 18.8134 30.2976 18.831ZM20.0448 16.1012C20.0448 10.3553 24.6355 5.69653 30.2918 5.69653C35.9539 5.69653 40.5446 10.3553 40.5446 16.1012C40.5446 21.8472 35.9539 26.5059 30.2918 26.5059C24.6355 26.5 20.0448 21.8472 20.0448 16.1012Z" fill="#21409A"/>
<path d="M30.2976 18.831C31.7837 18.831 32.9933 17.6093 32.9933 16.0954C32.9933 14.5814 31.7894 13.3598 30.2976 13.3598C28.8115 13.3831 27.6192 14.6223 27.6422 16.1363C27.6653 17.621 28.8403 18.8134 30.2976 18.831ZM20.0448 16.1012C20.0448 10.3553 24.6355 5.69653 30.2918 5.69653C35.9539 5.69653 40.5446 10.3553 40.5446 16.1012C40.5446 21.8472 35.9539 26.5059 30.2918 26.5059C24.6355 26.5 20.0448 21.8472 20.0448 16.1012ZM40.8672 25.6934L43.7818 6.43304H50.953L53.3434 13.8274L55.7338 6.43304H62.9798L65.7792 24.0216L71.7926 6.43304H79.5629L86.2157 25.6934H77.9213L75.7152 16.7442L73.4803 25.6934H58.5734L57.6 18.9479L55.584 25.6934H51.1027L49.1616 18.9479L47.9635 25.6934H40.8672Z" fill="#21409A"/>
<path d="M40.8672 25.6933L43.7818 6.433H50.953L53.3434 13.8273L55.7338 6.433H62.9798L65.7792 24.0216L71.7926 6.433H79.5629L86.2157 25.6933H77.9213L75.7152 16.7442L73.4803 25.6933H58.5734L57.6 18.9478L55.584 25.6933H51.1027L49.1616 18.9478L47.9635 25.6933H40.8672ZM83.975 6.433H96.2266V0.5H103.64V8.06385H96.3187V25.6933H88.3814V13.6344H83.975V6.433Z" fill="#21409A"/>
<path d="M83.975 6.433H96.2266V0.5H103.64V8.06385H96.3187V25.6933H88.3814V13.6344H83.975V6.433Z" fill="#21409A"/>
<path d="M117.072 7.94697L115.091 13.2136C115.091 13.2136 113 11.6646 110.327 11.5477C109.204 11.4951 108.68 12.7226 110.569 13.085C112.164 13.389 113.887 13.88 115.148 14.9906C117.867 17.3813 118.172 22.6363 113.628 25.0621C110.604 26.6754 104.475 26.3773 100.477 23.6475L102.534 18.4569C102.534 18.4569 105.708 20.7132 108.363 20.6196C109.486 20.5787 110.01 19.2577 108.121 18.8953C106.525 18.5913 104.786 18.1588 103.519 17.0423C100.8 14.6516 100.552 9.50767 105.039 6.9708C108.075 5.24643 112.856 5.26981 117.072 7.94697Z" fill="#21409A"/>
<path d="M117.072 7.94697L115.091 13.2136C115.091 13.2136 113 11.6646 110.327 11.5477C109.204 11.4951 108.68 12.7226 110.569 13.085C112.164 13.389 113.887 13.88 115.148 14.9906C117.867 17.3813 118.172 22.6363 113.628 25.0621C110.604 26.6754 104.475 26.3773 100.477 23.6475L102.534 18.4569C102.534 18.4569 105.708 20.7132 108.363 20.6196C109.486 20.5787 110.01 19.2577 108.121 18.8953C106.525 18.5913 104.786 18.1588 103.519 17.0423C100.8 14.6516 100.552 9.50767 105.039 6.9708C108.075 5.24643 112.856 5.26981 117.072 7.94697ZM119.094 6.43303H126.973V18.1821C126.973 19.5266 128.955 19.5266 128.955 18.1821V6.43303H136.8V19.17C136.8 19.7779 136.8 25.9564 128.022 25.9564C119.094 25.9564 119.094 19.7779 119.094 19.17V6.43303Z" fill="#21409A"/>
<path d="M119.094 6.43311H126.973V18.1822C126.973 19.5266 128.955 19.5266 128.955 18.1822V6.43311H136.8V19.1701C136.8 19.778 136.8 25.9565 128.022 25.9565C119.094 25.9565 119.094 19.778 119.094 19.1701V6.43311ZM140.694 9.16287V8.17501H141.339C141.667 8.17501 142.019 8.251 142.019 8.64264C142.019 9.13365 141.661 9.16287 141.258 9.16287H140.694ZM140.694 9.57204H141.241L142.065 10.9457H142.595L141.708 9.55451C142.168 9.49605 142.52 9.25055 142.52 8.67771C142.52 8.05226 142.151 7.77168 141.414 7.77168H140.221V10.9457H140.694V9.57204ZM141.27 12.1031C142.744 12.1031 144 10.9457 144 9.35577C144 7.77168 142.744 6.62016 141.27 6.62016C139.772 6.62016 138.511 7.77753 138.511 9.35577C138.511 10.9457 139.772 12.1031 141.27 12.1031ZM139.052 9.35577C139.052 8.05226 140.026 7.07025 141.27 7.07025C142.497 7.07025 143.464 8.04641 143.464 9.35577C143.464 10.6768 142.502 11.6471 141.27 11.6471C140.026 11.6471 139.052 10.6768 139.052 9.35577Z" fill="#21409A"/>
</svg>
