<svg width="132" height="61" viewBox="0 0 132 61" fill="none" xmlns="http://www.w3.org/2000/svg">
<path d="M52.1794 17.8105L42.7351 1.61121H20.65L15.7866 9.95416H40.4007V9.95806L40.4093 9.95416L44.9893 17.8105H52.1794Z" fill="#394B89"/>
<path d="M20.9502 17.7752V17.7658H43.0275L39.4332 11.5991L14.8176 11.5999L3.77499 30.5399L8.63924 38.8828L20.9463 17.7729" fill="#AC0036"/>
<path d="M18.0608 38.2959L18.0529 38.2912L29.0915 19.3566H21.9015L9.59363 40.4674L20.6362 59.4082L30.3639 59.4074L18.0569 38.2982" fill="#394B89"/>
<path d="M34.6213 51.0692L34.6126 51.0739L23.5748 32.1393L19.979 38.3052L32.2868 59.416H54.3719L59.2354 51.0739H34.6213" fill="#394B89"/>
<path d="M31.9453 43.2412L35.534 49.4609H60.1489L63.7699 43.2505" fill="#394B89"/>
<path d="M63.7914 17.8105L54.3307 1.58318L44.603 1.58394L54.0637 17.8105H63.7914Z" fill="#394B89"/>
<path d="M88.0883 22.4791V25.9223H89.2591V37.4831C89.2591 40.2628 89.5599 41.6211 92.6376 41.6211C93.5746 41.6211 94.4107 41.4636 95.1469 41.147V37.894C94.043 37.894 93.9761 37.6095 93.9761 36.7253V25.9223H95.1469V22.4791H93.9761V19.4149L89.2591 20.2679V22.4791H88.0883Z" fill="#394B89"/>
<path d="M102.538 22.1904C97.9557 22.1904 96.692 24.1584 96.692 28.2332V35.5235C96.692 39.6303 97.9557 41.5663 102.538 41.5663C107.121 41.5663 108.404 39.6303 108.404 35.5235V33.6522H103.68V36.1473C103.68 37.4104 103.642 38.1161 102.538 38.1161C101.434 38.1161 101.416 37.4736 101.416 36.1473V32.5801H108.404V28.2332C108.404 24.1272 107.121 22.1904 102.538 22.1904ZM102.538 25.6407C103.642 25.6407 103.68 26.273 103.68 27.7264V29.1494H101.416V27.7264C101.416 26.273 101.434 25.6407 102.538 25.6407Z" fill="#394B89"/>
<path d="M115.943 22.1904C111.36 22.1904 110.077 24.1584 110.077 28.2332V35.5235C110.077 39.6303 111.36 41.5663 115.943 41.5663C120.526 41.5663 121.789 39.6303 121.789 35.5235V33.6522H117.065V36.1473C117.065 37.4104 117.047 38.1161 115.943 38.1161C114.839 38.1161 114.801 37.4736 114.801 36.1473V32.5801H121.789V28.2332C121.789 24.1272 120.526 22.1904 115.943 22.1904ZM115.943 25.6407C117.047 25.6407 117.065 26.273 117.065 27.7264V29.1494H114.801V27.7264C114.801 26.273 114.839 25.6407 115.943 25.6407Z" fill="#394B89"/>
<path d="M123.509 41.2734H128.225V19.6995H123.509V41.2734Z" fill="#394B89"/>
<path d="M82.2955 26.6819H87.0621V25.2925C87.0621 21.1249 85.448 19.3566 80.8074 19.3566C76.6722 19.3566 74.4527 21.3775 74.4527 24.7872C74.4527 28.0714 76.1156 29.6168 78.9744 31.9216C80.5546 33.216 82.2955 34.0705 82.2955 35.8381C82.2955 36.8806 81.5483 37.449 80.809 37.449C79.8004 37.449 79.2587 36.9828 79.2587 35.4038V33.6627H74.4188V35.2697C74.4188 39.5324 76.3691 41.5215 80.8412 41.5215C85.1118 41.5215 87.2298 39.4381 87.2298 35.2697C87.2298 32.6179 85.7008 30.8807 83.482 29.2394C80.6239 27.0921 79.5634 25.8898 79.5634 24.7217C79.5634 23.9951 80.1019 23.2605 80.8751 23.2605C81.9506 23.2605 82.2955 23.8922 82.2955 25.2184V26.6819Z" fill="#394B89"/>
<path d="M52.9466 26.7767H57.7132V25.3873C57.7132 21.2197 56.0992 19.4513 51.4585 19.4513C47.3234 19.4513 45.1039 21.4723 45.1039 24.882C45.1039 28.1662 46.7675 29.7116 49.6256 32.0164C51.2058 33.3107 52.9466 34.1653 52.9466 35.9329C52.9466 36.9754 52.1994 37.5438 51.4601 37.5438C50.4515 37.5438 49.9098 37.0775 49.9098 35.4986V33.7575H45.07V35.3645C45.07 39.6272 47.0203 41.6162 51.4924 41.6162C55.763 41.6162 57.881 39.5329 57.881 35.3645C57.881 32.7127 56.3519 30.9755 54.1332 29.3342C51.2751 27.1869 50.2145 25.9845 50.2145 24.8165C50.2145 24.0898 50.7531 23.3553 51.5263 23.3553C52.6018 23.3553 52.9466 23.9869 52.9466 25.3132V26.7767Z" fill="#AC0036"/>
<path d="M31.0665 19.4619V41.6253H35.8693V19.4619H31.0665ZM39.0187 19.4814L37.011 24.7834V34.4324L39.1171 41.6253H44.5104L39.9045 28.799L44.3727 19.4814H39.0187Z" fill="#AC0036"/>
<path d="M59.726 19.4619V41.5863H64.7257V19.4619H59.726ZM65.828 19.4619V23.5749H66.3791C67.1279 23.5749 67.7176 24.4809 67.7176 26.1675C67.7176 28.0341 67.1468 28.76 66.2807 28.76H65.828V32.912H66.6153C70.6095 32.912 72.8551 31.1873 72.8551 26.5573C72.8551 21.1383 70.8575 19.4619 66.6744 19.4619H65.828Z" fill="#AC0036"/>
</svg>
