<svg width="50" height="51" viewBox="0 0 50 51" fill="none" xmlns="http://www.w3.org/2000/svg">
<path d="M40.625 28.625C40.625 31.7153 39.7086 34.7363 37.9917 37.3058C36.2748 39.8753 33.8345 41.878 30.9794 43.0606C28.1243 44.2432 24.9827 44.5527 21.9517 43.9498C18.9208 43.3469 16.1367 41.8587 13.9515 39.6735C11.7663 37.4883 10.2781 34.7042 9.67524 31.6733C9.07234 28.6423 9.38177 25.5007 10.5644 22.6456C11.747 19.7905 13.7497 17.3502 16.3192 15.6333C18.8887 13.9164 21.9097 13 25 13H31.25V20.8125L40.625 11.4375L31.25 2.0625V9.875H25C21.2916 9.875 17.6665 10.9747 14.5831 13.0349C11.4996 15.0952 9.09641 18.0236 7.67727 21.4497C6.25812 24.8758 5.88681 28.6458 6.61028 32.2829C7.33376 35.9201 9.11952 39.261 11.7418 41.8833C14.364 44.5055 17.7049 46.2912 21.3421 47.0147C24.9792 47.7382 28.7492 47.3669 32.1753 45.9477C35.6014 44.5286 38.5298 42.1254 40.5901 39.0419C42.6503 35.9585 43.75 32.3334 43.75 28.625H40.625Z" fill="#E0E4E8"/>
<path d="M30.6875 35.0781C29.9969 35.0968 29.3117 34.9523 28.6875 34.6563C28.1298 34.3791 27.6514 33.9652 27.2969 33.4531C26.925 32.8572 26.6754 32.1933 26.5625 31.5C26.3701 30.6386 26.281 29.7574 26.2969 28.875C26.2827 27.9926 26.3719 27.1116 26.5625 26.25C26.7021 25.5518 26.9782 24.8881 27.375 24.2969C27.7295 23.7848 28.2079 23.3709 28.7656 23.0938C29.3898 22.7977 30.0751 22.6532 30.7656 22.6719C31.4148 22.6225 32.0658 22.7402 32.6566 23.0137C33.2474 23.2872 33.7583 23.7074 34.1406 24.2344C34.9395 25.6228 35.3194 27.2129 35.2344 28.8125C35.3194 30.4121 34.9395 32.0022 34.1406 33.3906C33.7661 33.9525 33.249 34.4049 32.6423 34.7013C32.0355 34.9978 31.361 35.1279 30.6875 35.0781ZM30.6875 33.1719C31.0045 33.2051 31.3241 33.1406 31.6034 32.987C31.8827 32.8334 32.1083 32.598 32.25 32.3125C32.5935 31.5751 32.7543 30.7658 32.7188 29.9531V27.7969C32.7562 26.9891 32.5952 26.1844 32.25 25.4531C32.0772 25.1855 31.8401 24.9654 31.5603 24.813C31.2805 24.6605 30.967 24.5807 30.6484 24.5807C30.3298 24.5807 30.0163 24.6605 29.7366 24.813C29.4568 24.9654 29.2197 25.1855 29.0469 25.4531C28.7076 26.1859 28.5521 26.9904 28.5937 27.7969V29.9531C28.5539 30.7645 28.7093 31.5736 29.0469 32.3125C29.193 32.612 29.431 32.8569 29.7261 33.0115C30.0213 33.1661 30.3581 33.2223 30.6875 33.1719ZM19.7188 27.7188C20.2736 27.7738 20.8295 27.6237 21.2812 27.2969C21.4385 27.1692 21.5641 27.0068 21.6481 26.8225C21.7321 26.6381 21.7724 26.4368 21.7656 26.2344V26.1094C21.7772 25.8941 21.7411 25.6788 21.6601 25.479C21.5791 25.2792 21.4551 25.0996 21.2969 24.9531C20.9329 24.6547 20.4699 24.5041 20 24.5313C19.5102 24.5216 19.0279 24.6517 18.6094 24.9063C18.1778 25.1735 17.8141 25.5372 17.5469 25.9688L16.0938 24.6719C16.306 24.3921 16.5356 24.126 16.7812 23.875C17.0354 23.6323 17.3188 23.4224 17.625 23.25C17.9668 23.0562 18.3354 22.9141 18.7187 22.8281C19.1628 22.715 19.62 22.6624 20.0781 22.6719C20.6376 22.6692 21.1948 22.7428 21.7344 22.8906C22.1985 23.0125 22.6339 23.2249 23.0156 23.5156C23.3656 23.778 23.6537 24.114 23.8594 24.5C24.0514 24.905 24.1476 25.3487 24.1406 25.7969C24.1434 26.1531 24.0853 26.5071 23.9688 26.8438C23.849 27.1408 23.68 27.4155 23.4688 27.6563C23.2569 27.8832 23.0087 28.0733 22.7344 28.2188C22.4527 28.3621 22.1532 28.4672 21.8437 28.5313V28.625C22.1858 28.687 22.5173 28.7975 22.8281 28.9531C23.1287 29.0992 23.3991 29.3006 23.625 29.5469C23.8501 29.8007 24.0298 30.0914 24.1562 30.4063C24.2867 30.7721 24.3502 31.1585 24.3438 31.5469C24.3555 32.0441 24.2483 32.5369 24.0312 32.9844C23.8212 33.425 23.5108 33.8103 23.125 34.1094C22.7099 34.4293 22.2381 34.6679 21.7344 34.8125C21.152 34.9884 20.5458 35.0727 19.9375 35.0625C19.4116 35.0696 18.8868 35.0118 18.375 34.8906C17.9594 34.7825 17.5601 34.6196 17.1875 34.4063C16.8664 34.211 16.5723 33.9746 16.3125 33.7031C16.0598 33.4363 15.8298 33.1489 15.625 32.8438L17.2969 31.5781C17.4244 31.8085 17.5708 32.028 17.7344 32.2344C17.8984 32.4348 18.0875 32.6133 18.2969 32.7656C18.5113 32.9171 18.7487 33.0332 19 33.1094C19.2901 33.1885 19.59 33.2253 19.8906 33.2188C20.4516 33.2619 21.0086 33.0948 21.4531 32.75C21.6302 32.5785 21.7691 32.3716 21.8606 32.1427C21.9522 31.9138 21.9944 31.6682 21.9844 31.4219V31.2969C21.9899 31.0582 21.9407 30.8214 21.8405 30.6047C21.7402 30.3881 21.5917 30.1972 21.4062 30.0469C20.9139 29.7304 20.3344 29.5773 19.75 29.6094H18.5625V27.7188H19.7188Z" fill="#E0E4E8"/>
</svg>
