<svg width="50" height="50" viewBox="0 0 50 50" fill="none" xmlns="http://www.w3.org/2000/svg">
<path d="M36.0938 25L45.9375 15.1562C47.1875 13.9062 47.1875 12.0312 45.9375 10.7812L39.375 4.21875C38.125 2.96875 36.25 2.96875 35 4.21875L25 13.9062L15.1562 4.0625C13.9062 2.8125 12.0312 2.8125 10.7812 4.0625L4.0625 10.625C2.8125 11.875 2.8125 13.75 4.0625 15L13.9062 25L3.125 35.7812V46.875H14.2188L25 36.0938L34.8437 45.9375C36.0938 47.1875 37.9688 47.1875 39.2188 45.9375L45.7812 39.375C47.0312 38.125 47.0312 36.25 45.7812 35L36.0938 25ZM37.1875 6.25L43.75 12.8125L33.9063 22.6562L27.3438 16.0938L37.1875 6.25ZM12.8125 43.75H6.25V37.1875L16.0938 27.3438L22.6562 33.9063L12.8125 43.75ZM37.1875 43.75L6.25 12.8125L12.8125 6.25L18.2812 11.7188L15 15L17.1875 17.1875L20.4688 13.9062L27.0312 20.4688L23.75 23.75L25.9375 25.9375L29.2188 22.6562L35.7812 29.2188L32.8125 32.6562L35 34.8437L38.2812 31.5625L43.75 37.0312L37.1875 43.75Z" fill="#E0E4E8"/>
</svg>
