<svg width="54" height="51" viewBox="0 0 54 51" fill="none" xmlns="http://www.w3.org/2000/svg">
<path d="M26.6667 27.5832C27.9963 27.5831 29.2955 27.9558 30.3974 28.6532C31.4993 29.3507 32.3537 30.3411 32.8506 31.4973C33.3475 32.6534 33.4643 33.9225 33.186 35.1413C32.9078 36.3602 32.2471 37.4732 31.2889 38.3373L27.0445 42.1665H33.3333V46.3332H20V42.7415L28.2067 35.3353C28.4715 35.0966 28.6691 34.8002 28.7817 34.4725C28.8944 34.1447 28.9187 33.7959 28.8524 33.4572C28.7861 33.1185 28.6313 32.8005 28.4018 32.5317C28.1723 32.2628 27.8753 32.0515 27.5374 31.9166C27.1995 31.7816 26.8311 31.7273 26.4653 31.7585C26.0996 31.7897 25.7477 31.9055 25.4413 32.0953C25.1349 32.2852 24.8835 32.5433 24.7095 32.8466C24.5355 33.1499 24.4445 33.4888 24.4445 33.8332H20C20 32.1756 20.7024 30.5859 21.9526 29.4138C23.2029 28.2417 24.8986 27.5832 26.6667 27.5832ZM40 27.5832V35.9165H44.4445V27.5832H48.8889V46.3332H44.4445V40.0832H35.5556V27.5832H40ZM8.88891 25.4998C8.88616 27.999 9.48408 30.4666 10.6382 32.7194C11.7924 34.9721 13.4731 36.9521 15.5556 38.5123V43.5457C12.176 41.7177 9.36977 39.0873 7.41921 35.9194C5.46866 32.7514 4.44265 29.1577 4.44446 25.4998H8.88891ZM26.6667 4.66651C38.1889 4.66651 47.6645 12.8894 48.7778 23.4165H44.3067C43.8737 20.1978 42.4483 17.1676 40.2052 14.6972C37.9621 12.2269 34.9988 10.424 31.6787 9.50941C28.3586 8.59485 24.826 8.60846 21.514 9.54857C18.2021 10.4887 15.2547 12.3144 13.0333 14.8019L17.7778 19.2498H4.44446V6.74985L9.88224 11.8457C11.9664 9.58981 14.5442 7.78103 17.4404 6.54225C20.3366 5.30347 23.4833 4.66373 26.6667 4.66651Z" fill="#E0E4E8"/>
</svg>
