<svg width="140" height="58" viewBox="0 0 140 58" fill="none" xmlns="http://www.w3.org/2000/svg">
<g clip-path="url(#clip0_114_685)">
<path d="M136.013 24.2768C135.225 24.2761 134.418 23.9883 133.96 23.7496C124.642 18.8843 114.068 16.0084 103.802 16.0084C102.515 16.0084 101.561 16.0597 100.362 16.1809C102.301 19.2662 105.637 23.7563 107.921 26.5079C108.517 27.2228 108.692 27.6536 108.692 28.3421C108.692 29.5413 107.432 30.7035 106.094 30.7035C105.199 30.7035 104.664 30.3503 103.837 29.3748C101.053 26.1004 96.8736 20.2974 94.893 17.005C85.1487 18.7322 74.285 24.502 67.8662 29.5985C67.1321 30.1883 66.6219 30.4301 65.8863 30.4301C64.5219 30.4301 63.3355 29.2528 63.3355 27.9067C63.3355 27.1294 63.6218 26.5433 64.6241 25.705C74.4209 17.5307 89.6373 11.0739 102.56 11.0739C107.683 11.0739 112.624 11.7857 117.402 12.9585C120.304 13.6689 124.607 15.1143 128.273 16.7172C118.664 10.8969 106.621 5.57898 99.0059 5.57898C97.0629 5.57898 95.8743 6.2313 95.8743 7.5427C95.8743 8.31478 96.3041 9.34898 96.9457 10.3877C95.4212 10.5421 93.4136 10.8525 91.8944 11.26C91.1002 9.80169 90.5487 8.24397 90.5487 6.57252C90.5487 2.84922 92.9673 0.558594 97.8406 0.558594C108.879 0.558594 127.43 10.8728 136.686 18.4075C137.746 19.2707 138.789 20.3404 138.789 21.5945C138.789 22.8359 137.717 24.2761 136.013 24.2768Z" fill="#F47D30"/>
<path d="M16.0552 46.2202C16.0552 45.5566 16.4557 45.1445 17.0726 45.1445C17.6894 45.1445 18.0719 45.5566 18.0719 46.2202V47.3395C18.6106 46.236 19.8007 45.1445 20.8737 45.1445C21.5634 45.1445 21.8977 45.5505 21.8977 46.0891C21.8977 46.6141 21.6115 47.0103 20.7234 47.2559C18.8833 47.7703 18.0764 48.8023 18.0764 50.7826V56.5125C18.0764 57.1761 17.6887 57.5889 17.0726 57.5889C16.4565 57.5889 16.0552 57.1761 16.0552 56.5125V46.2202Z" fill="#555658"/>
<path d="M61.3271 46.2202C61.3271 45.5566 61.7261 45.1445 62.3445 45.1445C62.9591 45.1445 63.3453 45.5566 63.3453 46.2202V47.3395C63.881 46.236 65.0711 45.1445 66.1456 45.1445C66.8353 45.1445 67.1712 45.5505 67.1712 46.0891C67.1712 46.6141 66.8819 47.0103 65.996 47.2559C64.1545 47.7703 63.349 48.8023 63.349 50.7826V56.5125C63.349 57.1761 62.9598 57.5889 62.3452 57.5889C61.7276 57.5889 61.3279 57.1761 61.3279 56.5125L61.3271 46.2202Z" fill="#555658"/>
<path d="M27.6493 45.1445C29.6231 45.1445 30.8907 45.9392 30.8907 46.6525C30.8907 47.0804 30.5736 47.5075 30.0935 47.5075C29.3542 47.5075 29.0063 46.9101 27.6486 46.9101C25.3562 46.9101 24.1796 48.9658 24.1796 51.3671C24.1796 53.9696 25.5035 55.8248 27.6486 55.8248C29.1423 55.8248 29.4699 55.2056 30.1724 55.2056C30.63 55.2056 30.905 55.5152 30.905 55.989C30.905 56.447 30.5278 56.8206 29.8471 57.1355C29.2527 57.4096 28.4661 57.5889 27.6486 57.5889C24.2134 57.5889 22.1502 55.0023 22.1502 51.3671C22.151 47.8073 24.2322 45.1445 27.6493 45.1445Z" fill="#555658"/>
<path d="M33.845 52.144C33.8833 54.1348 35.1704 55.8236 37.4297 55.8236C39.8039 55.8236 40.3644 54.4911 41.2217 54.4911C41.7019 54.4911 42.0392 54.8173 42.0392 55.328C42.0392 56.3117 39.8731 57.5877 37.4477 57.5877C35.6324 57.5877 34.416 57.01 33.5106 56.088C32.3573 54.9152 31.8171 53.1842 31.8171 51.3667C31.8171 48.0418 33.8713 45.1426 37.2704 45.1426C40.4328 45.1426 42.4818 47.9416 42.4818 51.0676C42.4818 51.7764 42.1955 52.1433 41.3653 52.1433L33.845 52.144ZM40.4621 50.6337C40.4621 48.8953 39.4748 46.9097 37.2614 46.9097C35.0862 46.9097 33.9216 48.6203 33.845 50.6337H40.4621Z" fill="#555658"/>
<path d="M46.6209 56.5131C46.6209 57.176 46.2295 57.588 45.6126 57.588C44.9958 57.588 44.5998 57.176 44.5998 56.5131V42.102C44.5998 41.4391 44.9958 41.0264 45.6126 41.0264C46.2295 41.0264 46.6209 41.4391 46.6209 42.102V56.5131Z" fill="#555658"/>
<path d="M53.9722 57.5918C50.7587 57.5918 48.6248 55.0255 48.6248 51.367C48.6248 47.7069 50.7587 45.1406 53.9722 45.1406C57.1812 45.1406 59.3196 47.7062 59.3196 51.367C59.3196 55.0255 57.1812 57.5918 53.9722 57.5918ZM53.9722 55.8239C55.9385 55.8239 57.2886 54.1028 57.2886 51.3677C57.2886 48.6297 55.9385 46.91 53.9722 46.91C52.0029 46.91 50.6527 48.6297 50.6527 51.3677C50.6527 54.102 52.0021 55.8239 53.9722 55.8239Z" fill="#555658"/>
<path d="M81.1846 45.9847C80.0591 49.8639 78.21 56.2401 78.059 56.7659C77.8884 57.3459 77.5368 57.5892 76.986 57.5892C76.4331 57.5892 76.0912 57.3843 75.9101 56.7659C75.7546 56.2198 73.8146 49.5377 72.7033 45.6984C72.5155 45.065 72.3449 44.3162 72.2165 43.682C72.1398 44.3019 72.0407 45.0273 71.9332 45.7052C71.3562 49.3329 70.4613 54.9882 70.2134 56.5844C70.1037 57.2871 69.7468 57.5892 69.16 57.5892C68.6115 57.5892 68.2591 57.2178 68.2591 56.6288C68.2591 56.4006 68.3064 56.103 68.3718 55.7136C68.3718 55.7136 70.3982 43.4952 70.5597 42.5612C70.7325 41.5624 71.2495 41.0283 72.0887 41.0283C72.8386 41.0283 73.4299 41.469 73.6681 42.2998C73.8146 42.8165 75.448 48.5555 76.4856 52.1832C76.678 52.8528 76.8688 53.6414 77.0169 54.3533C77.1536 53.6542 77.3339 52.9025 77.5203 52.2479C78.5549 48.6241 80.2206 42.8173 80.3671 42.2998C80.6046 41.4682 81.1335 41.0283 81.8818 41.0283C82.67 41.0283 83.2478 41.5458 83.4093 42.5612C83.5589 43.4975 85.5988 55.7136 85.5988 55.7136C85.6649 56.103 85.7085 56.4006 85.7085 56.6288C85.7085 57.2178 85.3576 57.5892 84.8091 57.5892C84.2223 57.5892 83.8639 57.2871 83.7572 56.5844C83.5153 55.0327 82.664 49.6507 82.087 46.0193C81.9698 45.2781 81.8578 44.4368 81.7684 43.6669C81.6204 44.3388 81.4273 45.1636 81.1846 45.9847Z" fill="#555658"/>
<path d="M89.2631 41.5771C89.9468 41.5771 90.4961 42.1263 90.4961 42.8125C90.4961 43.4987 89.9476 44.0478 89.2631 44.0478C88.5786 44.0478 88.0302 43.4987 88.0302 42.8125C88.0309 42.1263 88.5794 41.5771 89.2631 41.5771ZM90.2744 46.2202C90.2744 45.5565 89.88 45.1445 89.2631 45.1445C88.6463 45.1445 88.2548 45.5565 88.2548 46.2202V56.5125C88.2548 57.1761 88.6463 57.5889 89.2631 57.5889C89.88 57.5889 90.2744 57.1761 90.2744 56.5125V46.2202Z" fill="#555658"/>
<path d="M93.7878 42.6518C93.7878 41.9882 94.1792 41.5762 94.7946 41.5762C95.4122 41.5762 95.8089 41.9882 95.8089 42.6518V45.2814H96.6309C97.2913 45.2814 97.6347 45.606 97.6347 46.1552C97.6347 46.7043 97.2913 47.0327 96.6309 47.0327H95.8089V56.5123C95.8089 57.1752 95.4129 57.5879 94.7946 57.5879C94.18 57.5879 93.7878 57.1752 93.7878 56.5123V47.0334H93.0537C92.3948 47.0334 92.0514 46.705 92.0514 46.1559C92.0514 45.6068 92.3948 45.2821 93.0537 45.2821H93.7878V42.6518Z" fill="#555658"/>
<path d="M100.155 42.6518C100.155 41.9882 100.549 41.5762 101.168 41.5762C101.784 41.5762 102.176 41.9882 102.176 42.6518V45.2814H102.996C103.661 45.2814 104 45.606 104 46.1552C104 46.7043 103.661 47.0327 102.996 47.0327H102.176V56.5123C102.176 57.1752 101.784 57.5879 101.168 57.5879C100.55 57.5879 100.155 57.1752 100.155 56.5123V47.0334H99.4184C98.758 47.0334 98.4146 46.705 98.4146 46.1559C98.4146 45.6068 98.758 45.2821 99.4184 45.2821H100.155V42.6518Z" fill="#555658"/>
<path d="M13.886 55.7352C13.463 54.5993 9.51844 43.9703 8.90534 42.3297C8.59578 41.5064 8.12469 41.0273 7.34403 41.0273C6.54685 41.0273 6.12309 41.5079 5.81203 42.3297C5.53177 43.0671 1.2378 54.6024 0.809528 55.7352C0.62169 56.2331 0.549561 56.5005 0.549561 56.716C0.549561 57.2229 0.983842 57.5875 1.50904 57.5875C2.05076 57.5875 2.36182 57.3065 2.53163 56.8327C2.63456 56.5487 3.19206 54.9775 3.90359 52.9768H10.7845C11.4569 54.866 11.9979 56.3838 12.1579 56.8327C12.312 57.2591 12.5922 57.5875 13.14 57.5875C13.6651 57.5875 14.158 57.2666 14.158 56.7401C14.1588 56.5088 14.1032 56.3258 13.886 55.7352ZM4.54224 51.1879C5.38 48.837 6.2959 46.2632 6.90599 44.5427C7.07805 44.0629 7.22907 43.6087 7.34478 43.2291C7.47251 43.6381 7.62954 44.1066 7.78207 44.539C8.39517 46.2632 9.30957 48.831 10.1458 51.1879H4.54224Z" fill="#555658"/>
<path d="M120.496 56.5131C120.496 57.176 120.099 57.588 119.482 57.588C118.867 57.588 118.472 57.176 118.472 56.5131V42.102C118.472 41.4391 118.866 41.0264 119.482 41.0264C120.098 41.0264 120.496 41.4391 120.496 42.102V56.5131Z" fill="#555658"/>
<path d="M114.61 45.1446C113.994 45.1446 113.603 45.5566 113.603 46.2203V47.1294C112.858 45.9009 111.643 45.1416 110.145 45.1416C107.069 45.1416 104.955 47.7072 104.955 51.3679C104.955 55.0257 107.069 57.5928 110.145 57.5928C111.642 57.5928 112.857 56.8327 113.603 55.6019V56.5141C113.603 57.1762 113.994 57.589 114.61 57.589C115.228 57.589 115.621 57.1762 115.621 56.5141V46.2203C115.621 45.5566 115.228 45.1446 114.61 45.1446ZM110.303 55.8272C108.336 55.8272 106.986 54.103 106.986 51.3679C106.986 48.6299 108.336 46.9057 110.303 46.9057C112.272 46.9057 113.62 48.6299 113.62 51.3679C113.62 54.1022 112.272 55.8272 110.303 55.8272Z" fill="#555658"/>
</g>
<defs>
<clipPath id="clip0_114_685">
<rect width="139" height="58" fill="white" transform="translate(0.5)"/>
</clipPath>
</defs>
</svg>
