<svg width="147" height="36" viewBox="0 0 147 36" fill="none" xmlns="http://www.w3.org/2000/svg">
<g clip-path="url(#clip0_114_763)">
<path d="M44.7729 33.5386C43.9963 33.472 43.6059 33.1304 43.6059 32.5368C43.6059 31.8796 44.154 31.4521 44.9996 31.4521C45.4504 31.4521 45.8111 31.5507 46.1179 31.7124C46.2059 31.761 46.2391 31.7923 46.2629 31.8327C46.2877 31.8721 46.2877 31.8949 46.2877 31.9279C46.2877 31.9513 46.2712 31.9914 46.2463 32.0227C46.2059 32.0692 46.1583 32.0934 46.102 32.0934C46.0458 32.0934 46.0013 32.0733 45.9084 32.0227C45.643 31.88 45.3493 31.8089 44.9996 31.8089C44.3635 31.8089 44.0094 32.0692 44.0094 32.5371C44.0094 32.9323 44.2551 33.1274 44.7987 33.1746L45.4245 33.2304C46.0703 33.2854 46.5594 33.4869 46.5594 34.2335C46.5594 34.929 45.9557 35.365 45.0076 35.365C44.4201 35.365 44.0021 35.2352 43.648 34.9922C43.5462 34.9253 43.4782 34.8546 43.4782 34.771C43.4782 34.7231 43.4937 34.6769 43.5424 34.629C43.5738 34.5974 43.6228 34.5811 43.6722 34.5811C43.736 34.5811 43.7912 34.6083 43.9038 34.6922C44.1944 34.907 44.5319 35.0011 44.991 35.0011C45.7469 35.0011 46.158 34.7472 46.158 34.2331C46.158 33.8362 45.9205 33.6398 45.4176 33.5939L44.7729 33.5386Z" fill="black"/>
<path d="M50.9887 35.3643C50.5538 35.3643 50.1835 35.2138 49.9108 34.9454C49.4883 34.5284 49.4197 33.9558 49.4197 33.4081C49.4197 32.8617 49.4883 32.2877 49.9108 31.8718C50.1835 31.6027 50.5538 31.4521 50.9887 31.4521C51.4233 31.4521 51.7933 31.6027 52.0666 31.8718C52.4888 32.2881 52.5581 32.8617 52.5581 33.4081C52.5581 33.9558 52.4884 34.5288 52.0666 34.9454C51.7933 35.2135 51.4233 35.3643 50.9887 35.3643ZM52.1402 33.4077C52.1402 32.9521 52.0894 32.4379 51.7857 32.1358C51.5679 31.9231 51.3118 31.8164 50.9884 31.8164C50.666 31.8164 50.4075 31.9231 50.1914 32.1358C49.8853 32.4379 49.838 32.9521 49.838 33.4077C49.838 33.8634 49.8856 34.3789 50.1914 34.6789C50.4075 34.8923 50.666 35.0004 50.9884 35.0004C51.3118 35.0004 51.5676 34.8923 51.7857 34.6789C52.0894 34.3789 52.1402 33.8634 52.1402 33.4077Z" fill="black"/>
<path d="M56.6648 35.3169C56.0515 35.3169 55.7318 34.8969 55.7318 34.3185V30.5263C55.7318 30.4196 55.7422 30.3751 55.7753 30.3275C55.8071 30.281 55.8713 30.249 55.941 30.249C56.0093 30.249 56.0729 30.2813 56.105 30.3275C56.1377 30.3751 56.1502 30.4196 56.1502 30.5263V34.3182C56.1502 34.7154 56.3345 34.953 56.7373 34.953H56.8018C56.8985 34.953 56.9475 34.9655 56.9872 34.9917C57.0362 35.0291 57.0593 35.0756 57.0593 35.1354C57.0593 35.1939 57.0358 35.2411 56.9872 35.2771C56.9475 35.3057 56.8947 35.3165 56.7866 35.3165L56.6648 35.3169Z" fill="black"/>
<path d="M66.3674 30.5234C66.3674 30.4174 66.3781 30.3742 66.4095 30.3263C66.4444 30.2774 66.5075 30.2461 66.5762 30.2461C66.6439 30.2461 66.7098 30.2777 66.7415 30.3263C66.774 30.3742 66.785 30.4177 66.785 30.5234V31.4983H67.4584C67.5458 31.4983 67.5903 31.5064 67.6313 31.5336C67.6738 31.5652 67.6945 31.6057 67.6945 31.6651C67.6945 31.7249 67.6735 31.7637 67.6313 31.7953C67.5903 31.8235 67.5458 31.8316 67.4584 31.8316H66.785V34.3176C66.785 34.7149 66.9704 34.9524 67.3732 34.9524H67.437C67.534 34.9524 67.582 34.965 67.622 34.9911C67.6704 35.0285 67.6945 35.0751 67.6945 35.1349C67.6945 35.1933 67.6704 35.2406 67.622 35.2766C67.582 35.3051 67.5299 35.316 67.4208 35.316H67.3C66.6891 35.316 66.3677 34.896 66.3677 34.3176L66.3674 30.5234Z" fill="black"/>
<path d="M70.6577 30.5436C70.6577 30.3802 70.7909 30.249 70.9552 30.249C71.1205 30.249 71.2537 30.3802 71.2537 30.5436C71.2537 30.7054 71.1205 30.8345 70.9552 30.8345C70.7909 30.8348 70.6577 30.7054 70.6577 30.5436Z" fill="black"/>
<path d="M70.7471 31.7444C70.7471 31.6377 70.7571 31.5942 70.7909 31.5467C70.823 31.4984 70.8882 31.4668 70.9552 31.4668C71.0239 31.4668 71.0891 31.4987 71.1205 31.5467C71.1526 31.5942 71.1647 31.6377 71.1647 31.7444V35.0718C71.1647 35.1782 71.1523 35.222 71.1205 35.2699C71.0891 35.3168 71.0242 35.3481 70.9552 35.3481C70.8882 35.3481 70.823 35.3165 70.7909 35.2699C70.7571 35.222 70.7471 35.1778 70.7471 35.0718V31.7444Z" fill="black"/>
<path d="M75.9223 35.3643C75.4877 35.3643 75.1177 35.2138 74.8447 34.9454C74.4233 34.5284 74.3529 33.9558 74.3529 33.4081C74.3529 32.8617 74.4233 32.2877 74.8447 31.8718C75.1177 31.6027 75.4877 31.4521 75.9223 31.4521C76.3572 31.4521 76.7275 31.6027 77.0002 31.8718C77.423 32.2881 77.4917 32.8617 77.4917 33.4081C77.4917 33.9558 77.423 34.5288 77.0002 34.9454C76.7275 35.2135 76.3572 35.3643 75.9223 35.3643ZM77.0727 33.4077C77.0727 32.9521 77.0251 32.4379 76.7199 32.1358C76.5025 31.9231 76.2443 31.8164 75.9223 31.8164C75.601 31.8164 75.3428 31.9231 75.1264 32.1358C74.8199 32.4379 74.7719 32.9521 74.7719 33.4077C74.7719 33.8634 74.8202 34.3789 75.1264 34.6789C75.3428 34.8923 75.601 35.0004 75.9223 35.0004C76.2443 35.0004 76.5025 34.8923 76.7199 34.6789C77.0251 34.3789 77.0727 33.8634 77.0727 33.4077Z" fill="black"/>
<path d="M88.0079 33.5386C87.2306 33.472 86.8405 33.1304 86.8405 32.5368C86.8405 31.8796 87.3873 31.4521 88.2315 31.4521C88.6837 31.4521 89.0447 31.5507 89.3502 31.7124C89.4406 31.761 89.473 31.7923 89.4962 31.8327C89.5207 31.8721 89.5207 31.8949 89.5207 31.9279C89.5207 31.9513 89.5051 31.9914 89.4803 32.0227C89.4406 32.0692 89.3899 32.0934 89.3346 32.0934C89.2794 32.0934 89.2342 32.0733 89.141 32.0227C88.8766 31.88 88.5836 31.8089 88.2312 31.8089C87.5971 31.8089 87.243 32.0692 87.243 32.5371C87.243 32.9323 87.4884 33.1274 88.0313 33.1746L88.6588 33.2304C89.3025 33.2854 89.793 33.4869 89.793 34.2335C89.793 34.929 89.1897 35.365 88.2398 35.365C87.6523 35.365 87.234 35.2352 86.8806 34.9922C86.7798 34.9253 86.7104 34.8546 86.7104 34.771C86.7104 34.7231 86.728 34.6769 86.7746 34.629C86.8084 34.5974 86.8561 34.5811 86.9054 34.5811C86.9689 34.5811 87.0262 34.6083 87.1391 34.6922C87.4287 34.907 87.7656 35.0011 88.2239 35.0011C88.9812 35.0011 89.3902 34.7472 89.3902 34.2331C89.3902 33.8362 89.1538 33.6398 88.6516 33.5939L88.0079 33.5386Z" fill="black"/>
<path d="M83.2813 31.8197C83.0297 31.5815 82.6769 31.4551 82.2431 31.4551C82.2258 31.4551 82.1506 31.4551 82.134 31.4551C81.7002 31.4551 81.3464 31.5815 81.0961 31.8197C80.8331 32.0657 80.6947 32.4293 80.6947 32.8816V35.0754C80.6947 35.1817 80.7058 35.2252 80.7375 35.2738C80.7693 35.3204 80.8331 35.3516 80.9032 35.3516C80.9715 35.3516 81.0354 35.32 81.0678 35.2738C81.1013 35.2252 81.1124 35.1817 81.1124 35.0754V32.9604C81.1124 32.2241 81.482 31.8197 82.1837 31.8197H82.1927C82.8944 31.8197 83.2647 32.2241 83.2647 32.9604V35.0754C83.2647 35.1817 83.2748 35.2252 83.3089 35.2738C83.3407 35.3204 83.4052 35.3516 83.4732 35.3516C83.5429 35.3516 83.6068 35.32 83.6389 35.2738C83.671 35.2252 83.6824 35.1817 83.6824 35.0754V32.8816C83.6827 32.4293 83.5433 32.0657 83.2813 31.8197Z" fill="black"/>
<path d="M60.2647 34.9994C60.5153 35.2369 60.8691 35.364 61.3033 35.364C61.3199 35.364 61.3616 35.3623 61.3616 35.3623C61.3789 35.3633 61.3948 35.364 61.4113 35.364C61.8455 35.364 62.2 35.2369 62.4496 34.9994C62.7115 34.7531 62.8513 34.3898 62.8513 33.9372V31.7441C62.8513 31.6374 62.8396 31.5939 62.8078 31.5453C62.7757 31.4991 62.7115 31.4668 62.6425 31.4668C62.5745 31.4668 62.5103 31.4994 62.4779 31.5453C62.4447 31.5939 62.4344 31.6374 62.4344 31.7441V33.858C62.4344 34.5944 62.0637 34.9994 61.3623 34.9994H61.3527C60.6513 34.9994 60.2813 34.5944 60.2813 33.858V31.7441C60.2813 31.6374 60.271 31.5939 60.2375 31.5453C60.205 31.4991 60.1405 31.4668 60.0725 31.4668C60.0017 31.4668 59.9389 31.4994 59.9065 31.5453C59.8751 31.5939 59.8637 31.6374 59.8637 31.7441V33.9372C59.8637 34.3898 60.0017 34.7534 60.2647 34.9994Z" fill="black"/>
<path d="M20.2404 30.5417C20.2404 30.3782 20.3726 30.2471 20.5369 30.2471C20.7029 30.2471 20.8347 30.3782 20.8347 30.5417C20.8347 30.7034 20.7029 30.8329 20.5369 30.8329C20.3726 30.8332 20.2404 30.7034 20.2404 30.5417Z" fill="black"/>
<path d="M0.827896 31.2454C0.827896 30.666 1.15027 30.2471 1.76257 30.2471H1.88269C1.99072 30.2471 2.04284 30.2586 2.08287 30.2855C2.13189 30.3232 2.15639 30.3694 2.15639 30.4282C2.15639 30.4883 2.13154 30.5356 2.08287 30.5723C2.04284 30.5978 1.99521 30.6107 1.89787 30.6107H1.83402C1.43261 30.6107 1.24726 30.8472 1.24726 31.2451V32.0678H1.91858C2.00625 32.0678 2.05216 32.0762 2.09288 32.1038C2.13568 32.1354 2.15639 32.1751 2.15639 32.2343C2.15639 32.2947 2.13568 32.3335 2.09288 32.3651C2.05216 32.3929 2.00625 32.4011 1.91858 32.4011H1.2476V35.072C1.2476 35.1783 1.23483 35.2222 1.20273 35.2701C1.17063 35.317 1.10713 35.3482 1.03706 35.3482C0.969754 35.3482 0.905901 35.3166 0.872766 35.2701C0.840322 35.2222 0.827896 35.178 0.827896 35.072V31.2454Z" fill="black"/>
<path d="M5.93133 35.3166C5.32041 35.3166 4.99838 34.8966 4.99838 34.3183V30.5247C4.99838 30.4177 5.0115 30.3731 5.04325 30.3259C5.0757 30.279 5.13955 30.2471 5.20755 30.2471C5.27554 30.2471 5.34043 30.2794 5.37218 30.3259C5.40497 30.3731 5.4174 30.4177 5.4174 30.5247V34.3179C5.4174 34.7152 5.6024 34.9527 6.00589 34.9527H6.06939C6.16569 34.9527 6.21401 34.9653 6.25336 34.9914C6.30341 35.0288 6.32722 35.0754 6.32722 35.1352C6.32722 35.1936 6.30341 35.2409 6.25336 35.2769C6.21436 35.3054 6.16155 35.3163 6.05248 35.3163L5.93133 35.3166Z" fill="black"/>
<path d="M9.28831 33.4947C9.28831 34.4618 9.73287 35.0011 10.554 35.0011C10.8791 35.0011 11.1963 34.9141 11.4462 34.6993C11.5594 34.5998 11.6029 34.5648 11.6795 34.5648C11.7772 34.5648 11.8642 34.6569 11.8642 34.7472C11.8642 34.9172 11.5836 35.0884 11.4541 35.1598C11.237 35.2811 10.915 35.365 10.5284 35.365C9.45881 35.365 8.87102 34.6844 8.87102 33.4084C8.87102 32.1491 9.46675 31.4521 10.4328 31.4521C11.3941 31.4521 11.9857 32.1491 11.9857 33.2507C11.9857 33.3021 11.9857 33.3839 11.9291 33.4407C11.8732 33.4951 11.8014 33.4951 11.7358 33.4951L9.28831 33.4947ZM11.5756 33.1549C11.5598 32.8372 11.5356 32.6907 11.4376 32.4542C11.2778 32.0577 10.8919 31.8164 10.4332 31.8164C9.97482 31.8164 9.58859 32.0621 9.42706 32.4542C9.33076 32.6904 9.30557 32.8372 9.28865 33.1549H11.5756Z" fill="black"/>
<path d="M15.6788 33.4081L14.6806 31.8474C14.6323 31.773 14.6075 31.7206 14.6075 31.6697C14.6075 31.599 14.6406 31.5433 14.7076 31.4987C14.7438 31.4756 14.7818 31.4668 14.817 31.4668C14.905 31.4668 14.9644 31.5191 15.033 31.6296L15.9549 33.1227L16.8768 31.6296C16.9455 31.5191 17.0063 31.4668 17.0933 31.4668C17.1302 31.4668 17.1671 31.4753 17.2027 31.4987C17.2703 31.5433 17.3028 31.599 17.3028 31.6697C17.3028 31.7206 17.279 31.7733 17.231 31.8474L16.2328 33.4081L17.2355 34.9682C17.2834 35.0436 17.3079 35.0956 17.3079 35.1469C17.3079 35.2183 17.2755 35.2747 17.2072 35.3168C17.1713 35.3409 17.1343 35.3484 17.0981 35.3484C17.009 35.3484 16.9493 35.2981 16.8813 35.1867L15.9553 33.6973L15.0313 35.1867C14.9623 35.2978 14.9015 35.3484 14.8142 35.3484C14.7762 35.3484 14.7403 35.3413 14.7051 35.3168C14.6365 35.2747 14.6044 35.2183 14.6044 35.1469C14.6044 35.0956 14.6289 35.0433 14.6758 34.9682L15.6788 33.4081Z" fill="black"/>
<path d="M20.3287 31.7444C20.3287 31.6377 20.3408 31.5942 20.3726 31.5467C20.405 31.4984 20.4685 31.4668 20.5372 31.4668C20.6066 31.4668 20.6708 31.4987 20.7032 31.5467C20.7346 31.5942 20.7474 31.6377 20.7474 31.7444V35.0718C20.7474 35.1782 20.7346 35.222 20.7032 35.2699C20.6708 35.3168 20.6066 35.3481 20.5372 35.3481C20.4689 35.3481 20.4054 35.3165 20.3726 35.2699C20.3408 35.222 20.3287 35.1778 20.3287 35.0718V31.7444Z" fill="black"/>
<path d="M31.2932 35.3167C30.682 35.3167 30.3599 34.8967 30.3599 34.3183V30.5234C30.3599 30.4167 30.3713 30.3722 30.4041 30.3246C30.4366 30.278 30.5001 30.2461 30.5684 30.2461C30.6381 30.2461 30.703 30.2784 30.7351 30.3246C30.7662 30.3722 30.7796 30.4167 30.7796 30.5234V34.318C30.7796 34.7152 30.9633 34.9527 31.3664 34.9527H31.4296C31.5269 34.9527 31.5749 34.9653 31.616 34.9915C31.6636 35.0289 31.6877 35.0754 31.6877 35.1352C31.6877 35.1937 31.6636 35.2409 31.616 35.2769C31.5752 35.3055 31.5224 35.3163 31.4151 35.3163L31.2932 35.3167Z" fill="black"/>
<path d="M34.6516 33.4947C34.6516 34.4618 35.0937 35.0011 35.9138 35.0011C36.2407 35.0011 36.5589 34.9141 36.8071 34.6993C36.9206 34.5998 36.9651 34.5648 37.0414 34.5648C37.1384 34.5648 37.2254 34.6569 37.2254 34.7472C37.2254 34.9172 36.9444 35.0884 36.8157 35.1598C36.5972 35.2811 36.2759 35.365 35.8907 35.365C34.8197 35.365 34.2322 34.6844 34.2322 33.4084C34.2322 32.1491 34.8279 31.4521 35.793 31.4521C36.7546 31.4521 37.3476 32.1491 37.3476 33.2507C37.3476 33.3021 37.3476 33.3839 37.2906 33.4407C37.234 33.4951 37.1612 33.4951 37.0966 33.4951L34.6516 33.4947ZM36.9368 33.1549C36.9206 32.8372 36.8954 32.6907 36.7998 32.4542C36.6397 32.0577 36.2524 31.8164 35.793 31.8164C35.3346 31.8164 34.9487 32.0621 34.7879 32.4542C34.692 32.6904 34.6664 32.8372 34.6512 33.1549H36.9368Z" fill="black"/>
<path d="M24.1589 30.5247C24.1589 30.4173 24.171 30.3731 24.2038 30.3262C24.2348 30.2783 24.2994 30.2471 24.3677 30.2471C24.4374 30.2471 24.501 30.2787 24.5334 30.3262C24.5652 30.3731 24.5783 30.4173 24.5783 30.5247V31.9882C24.9151 31.5444 25.2941 31.4496 25.7297 31.4496C26.1301 31.4496 26.477 31.5842 26.6785 31.7823C27.0717 32.1707 27.1852 32.765 27.1852 33.4066C27.1852 34.0478 27.0717 34.6414 26.6785 35.0302C26.477 35.2283 26.1304 35.3622 25.7297 35.3622C24.7705 35.3622 24.1589 34.791 24.1589 33.8368V30.5247ZM26.7665 33.4066C26.7665 32.6131 26.6209 31.8143 25.6717 31.8143C24.7232 31.8143 24.5783 32.6131 24.5783 33.4066C24.5783 34.198 24.7232 34.9982 25.6717 34.9982C26.6205 34.9979 26.7665 34.198 26.7665 33.4066Z" fill="black"/>
<path d="M32.3908 15.7578C31.7174 16.0901 30.7789 16.3969 29.5775 16.6813L27.9173 17.0364C27.0509 17.2736 26.4252 17.5815 26.041 17.9597C25.7031 18.4806 25.5354 19.0022 25.5354 19.5221C25.5354 20.2327 25.7521 20.8008 26.185 21.2273C26.6181 21.6062 27.2439 21.7958 28.0619 21.7958C29.4083 21.7958 30.4662 21.4176 31.2363 20.6591C32.0056 19.9017 32.3912 18.8602 32.3912 17.5336L32.3908 15.7578ZM33.545 24.4955C32.5351 25.0151 31.4641 25.3355 30.3344 25.4531C29.2037 25.5713 28.2058 25.6315 27.3402 25.6315C25.6089 25.6315 24.093 25.1687 22.7942 24.2454C21.4957 23.3222 20.8461 21.7951 20.8461 19.6642C20.8461 17.6763 21.4356 16.2545 22.6136 15.4033C23.7917 14.5501 25.2951 13.9819 27.1238 13.6985C27.363 13.6985 27.6522 13.6625 27.9894 13.5922C28.3246 13.5205 28.7111 13.4617 29.1436 13.4141C31.2597 13.1307 32.318 12.5143 32.318 11.5673C32.318 10.8574 31.9449 10.3953 31.2 10.1829C30.4535 9.96984 29.7676 9.86246 29.1436 9.86246C28.4702 9.86246 27.8686 9.95727 27.3398 10.1469C26.8097 10.3368 26.4248 10.6919 26.1846 11.2125H21.3518C21.5437 9.74455 22.2171 8.53688 23.3709 7.58984C24.6701 6.50144 26.5218 5.95605 28.9275 5.95605C31.6204 5.95605 33.6406 6.4063 34.9881 7.30542C36.3822 8.25314 37.0801 9.57838 37.0801 11.2832V17.747C37.0801 19.6411 36.7301 21.1206 36.0336 22.1859C35.336 23.2522 34.5063 24.0212 33.545 24.4955Z" fill="black"/>
<path d="M39.2797 25.2751V16.1129C39.2797 14.2664 39.2797 6.41211 48.4122 6.41245L50.101 6.41211V11.4253H48.4425C47.0453 11.4253 46.0127 11.7576 45.3403 12.4189C44.6652 13.0822 44.33 14.124 44.33 15.5441V25.2751H39.2797Z" fill="black"/>
<path d="M65.2139 15.6856C65.2139 13.9811 64.8529 12.6555 64.1318 11.7082C63.4105 10.7139 62.4244 10.2164 61.1742 10.2164C59.8271 10.2164 58.792 10.6908 58.072 11.6371C57.3499 12.6314 56.9899 13.9811 56.9899 15.6856C56.9899 17.6755 57.3254 19.119 58.0002 20.0184C58.7219 21.0134 59.7311 21.5102 61.0303 21.5102C62.3754 21.5102 63.4105 21.0134 64.1322 20.0184C64.8529 19.0245 65.2139 17.581 65.2139 15.6856ZM56.9899 3.2565V8.86737C57.5184 7.96791 58.2884 7.23427 59.2983 6.66577C60.1647 6.19208 61.2215 5.9549 62.473 5.9549C64.7328 5.9549 66.5849 6.87883 68.0276 8.725C69.4696 10.5715 70.1927 12.9634 70.1927 15.8983C70.1927 18.8349 69.4696 21.2258 68.0276 23.0723C67.3069 23.9724 66.3322 24.6235 65.1066 25.0255C63.8799 25.4268 62.6643 25.6303 61.4631 25.6303C59.1527 25.6303 57.0131 25.0391 55.0419 23.8535C53.0686 22.6703 52.0843 20.3973 52.0843 17.0353V0.84082H54.5369C55.21 0.84082 55.7871 1.07767 56.2682 1.55237C56.7483 2.02538 56.9899 2.59354 56.9899 3.2565Z" fill="black"/>
<path d="M13.9582 15.6856C13.9582 13.9811 13.5975 12.6555 12.8758 11.7082C12.1545 10.7139 11.168 10.2164 9.91786 10.2164C8.56969 10.2164 7.53699 10.6908 6.81528 11.6371C6.0939 12.6314 5.73322 13.9811 5.73322 15.6856C5.73322 17.6755 6.0694 19.119 6.74348 20.0184C7.46451 21.0134 8.47477 21.5102 9.77359 21.5102C11.119 21.5102 12.1545 21.0134 12.8758 20.0184C13.5975 19.0245 13.9582 17.581 13.9582 15.6856ZM5.73356 3.2565V8.86737C6.26199 7.96791 7.03203 7.23427 8.0423 6.66577C8.9076 6.19208 9.9648 5.9549 11.216 5.9549C13.4757 5.9549 15.3288 6.87883 16.7716 8.725C18.214 10.5715 18.936 12.9634 18.936 15.8983C18.936 18.8349 18.214 21.2258 16.7716 23.0723C16.0495 23.9724 15.0758 24.6235 13.8499 25.0255C12.6232 25.4268 11.4075 25.6303 10.2061 25.6303C7.89768 25.6303 5.75669 25.0391 3.78483 23.8535C1.81262 22.6706 0.827896 20.398 0.827896 17.0356V0.84082H3.28056C3.95326 0.84082 4.5307 1.07767 5.01185 1.55237C5.49127 2.02538 5.73356 2.59354 5.73356 3.2565Z" fill="black"/>
<path d="M78.3798 11.0697C77.3695 12.1598 76.9115 13.782 77.0081 15.935C77.1034 18.0901 77.5138 19.593 78.2355 20.4453C78.5237 20.8242 79.0273 21.1449 79.7504 21.4039C80.4711 21.6652 81.2042 21.6883 81.95 21.4752C82.6956 21.2622 83.3576 20.7294 83.9337 19.8768C84.5118 19.0246 84.8235 17.6517 84.8732 15.758C84.8732 14.0532 84.596 12.7742 84.0434 11.9216C83.4884 11.0694 82.8526 10.525 82.1316 10.2888C81.4099 10.0527 80.6871 10.0397 79.9671 10.2528C79.2454 10.4662 78.7163 10.7391 78.3798 11.0697ZM74.9169 23.5712C73.9062 22.7186 73.1842 21.5707 72.7524 20.1259C72.3196 18.6834 72.1021 17.178 72.1021 15.616C72.1021 14.3373 72.2833 13.0589 72.6451 11.7806C73.0047 10.5019 73.5694 9.43659 74.3398 8.58504C75.5892 7.16329 77.1994 6.32363 79.1733 6.06266C81.1452 5.80339 82.9251 5.9563 84.5118 6.52412C86.3383 7.23465 87.6858 8.46577 88.5515 10.2175C89.3688 11.7806 89.7792 13.604 89.7792 15.6866C89.7792 17.2022 89.6097 18.505 89.2742 19.5934C88.936 20.6825 88.5042 21.6061 87.9754 22.3635C86.8209 23.9269 85.3529 24.8974 83.5743 25.2753C81.9866 25.7021 80.3872 25.7371 78.7764 25.3816C77.1652 25.0269 75.8781 24.4227 74.9169 23.5712Z" fill="black"/>
<path d="M92.0499 25.2746V5.8132C92.0499 4.10805 92.5059 2.8297 93.4216 1.97781C94.0887 1.35597 95.0076 0.84082 96.3871 0.84082H100.059V4.81825H98.7587C98.086 4.81825 97.6052 4.91339 97.3166 5.10266C97.0761 5.29296 96.9559 5.67116 96.9559 6.23932V7.94446H100.058V9.00975C100.058 9.72097 99.8176 10.3007 99.3361 10.7506C98.855 11.2001 98.3014 11.4251 97.6777 11.4251H96.9556V25.2749H92.0499V25.2746Z" fill="black"/>
<path d="M102.114 0.84082H104.711C105.382 0.84082 105.96 1.06747 106.442 1.51601C106.922 1.96592 107.164 2.52252 107.164 3.18446V25.2746H102.114V0.84082Z" fill="black"/>
<path d="M144.897 2.25097C144.961 2.24689 145.019 2.23636 145.067 2.21869C145.117 2.19762 145.156 2.1684 145.186 2.12626C145.215 2.08515 145.231 2.02738 145.231 1.95466C145.231 1.89248 145.218 1.84354 145.196 1.80651C145.172 1.76845 145.143 1.73786 145.102 1.71476C145.064 1.69131 145.019 1.6767 144.968 1.66786C144.919 1.65971 144.868 1.65699 144.813 1.65699H144.417V2.25709H144.703C144.768 2.25743 144.832 2.25539 144.897 2.25097ZM144.197 3.21092V1.47519H144.874C145.073 1.47519 145.218 1.51631 145.31 1.5982C145.404 1.68078 145.449 1.80005 145.449 1.95466C145.449 2.03078 145.437 2.09636 145.413 2.15243C145.39 2.20884 145.358 2.25743 145.318 2.29549C145.276 2.33456 145.229 2.36549 145.176 2.38893C145.124 2.41238 145.066 2.43005 145.005 2.43922L145.53 3.21058H145.276L144.781 2.43922H144.416V3.21058L144.197 3.21092ZM144.236 1.15578C144.081 1.22374 143.943 1.31481 143.829 1.43102C143.714 1.54689 143.625 1.6818 143.561 1.83777C143.497 1.99442 143.465 2.16262 143.465 2.34204C143.465 2.52214 143.497 2.69034 143.561 2.84631C143.626 3.00296 143.714 3.13888 143.829 3.25374C143.943 3.37131 144.081 3.46068 144.236 3.53C144.395 3.59558 144.565 3.62956 144.752 3.62956C144.935 3.62956 145.105 3.59558 145.262 3.53C145.419 3.46068 145.556 3.37097 145.67 3.25374C145.785 3.13888 145.875 3.00296 145.94 2.84631C146.005 2.69034 146.039 2.52214 146.039 2.34204C146.039 2.16262 146.005 1.99442 145.94 1.83777C145.875 1.6818 145.785 1.54689 145.67 1.43102C145.556 1.31481 145.419 1.22408 145.262 1.15578C145.105 1.08884 144.935 1.05587 144.752 1.05587C144.565 1.05587 144.395 1.0885 144.236 1.15578ZM145.354 0.957671C145.54 1.03311 145.701 1.13913 145.838 1.27505C145.975 1.41165 146.081 1.57238 146.16 1.75316C146.238 1.93597 146.277 2.13238 146.277 2.34204C146.277 2.55578 146.238 2.75151 146.16 2.93534C146.081 3.1151 145.975 3.27277 145.838 3.40801C145.701 3.54189 145.54 3.64961 145.354 3.72403C145.169 3.80151 144.968 3.8399 144.752 3.8399C144.535 3.8399 144.336 3.80151 144.148 3.72403C143.962 3.64961 143.802 3.54189 143.666 3.40801C143.529 3.27311 143.422 3.11544 143.344 2.93534C143.266 2.75151 143.227 2.55578 143.227 2.34204C143.227 2.13238 143.266 1.93597 143.344 1.75316C143.422 1.57238 143.529 1.41165 143.666 1.27505C143.802 1.13947 143.962 1.03311 144.148 0.957671C144.336 0.880195 144.535 0.841797 144.752 0.841797C144.968 0.841797 145.169 0.880195 145.354 0.957671Z" fill="black"/>
<path d="M136.803 15.6595L142.91 6.3155H138.676C137.655 6.3155 136.925 6.74672 136.486 7.60914L134.275 11.2909L132.064 7.60914C131.625 6.74672 130.895 6.3155 129.873 6.3155H125.639L131.672 15.5847L131.045 16.7115C129.352 19.4449 125.842 21.7121 122.217 21.7121L121.419 21.7111C117.367 21.7111 114.181 20.427 113.681 17.0989H124.427L124.427 17.1003C126.053 17.1003 126.535 16.4597 126.432 14.6768H126.43C126.262 12.0823 125.502 10.017 124.15 8.47667C122.557 6.76642 120.586 5.91113 117.691 5.91113C114.941 5.91113 112.793 6.79055 111.25 8.54871C109.754 10.2589 109.006 12.6335 109.006 15.6734C109.006 22.6503 114.645 25.6151 121.411 25.6494L122.124 25.6505C124.927 25.6528 130.841 24.4625 133.949 19.7062L136.669 24.1397C137.105 25.0028 137.835 25.4337 138.859 25.4337H143.227L136.803 15.6595ZM115.109 11.0412C115.784 10.3769 116.774 10.0452 117.836 10.0452C118.994 10.0452 119.886 10.3775 120.514 11.0415C121.093 11.66 121.767 12.609 121.863 13.8925H113.681C113.729 12.6576 114.432 11.7069 115.109 11.0412Z" fill="black"/>
</g>
<defs>
<clipPath id="clip0_114_763">
<rect width="146" height="35" fill="white" transform="translate(0.5 0.5)"/>
</clipPath>
</defs>
</svg>
