<svg width="136" height="28" viewBox="0 0 136 28" fill="none" xmlns="http://www.w3.org/2000/svg">
<path fill-rule="evenodd" clip-rule="evenodd" d="M10.9946 3.29175L10.5024 3.37047L9.84435 3.56726L9.47649 3.79358L9.2278 3.96086L8.77704 4.38889L8.19675 5.1318L7.95324 5.67792L7.78226 6.25847L3.91713 20.6099L3.67362 21.5054L3.58554 21.776L3.54409 22.0072L3.46638 22.3221V22.6025L3.42493 22.8337L3.46638 23.188L3.50264 23.4979L3.67362 23.8522L3.87569 24.1228L4.08811 24.354L4.40934 24.5164L4.78238 24.6344L5.19169 24.6689L5.56474 24.7082H21.9009H22.4397L22.6055 24.6689L22.6418 24.6344L22.7247 24.3146L23.2272 22.6025L23.3464 22.0515L23.678 20.8756L24.1287 19.1979L24.2116 18.9667L24.2479 18.765L24.2116 18.7256L24.1287 18.6961H16.2275L16.1861 18.6518V18.5731L16.269 18.2631L16.4658 17.5596L16.5954 17.0922L17.1705 14.8192L17.5021 13.6827L18.0357 11.7294L18.4865 10.096L18.9372 8.4872L19.0201 8.37404L19.1082 8.33468H24.621L24.7038 8.30025L24.7401 8.21661L25.1132 6.81442L25.4862 5.5254L25.7349 4.58077L26.0561 3.33111L26.0199 3.29175H10.9946ZM31.0766 3.29175L30.8746 3.33111L30.8383 3.37047L30.7554 3.68042L30.6259 4.22654L25.8178 22.0072L25.6883 22.6025L25.6468 23.1043L25.7763 23.5717L25.9784 23.9653L26.3877 24.354L26.7193 24.5164L27.253 24.6344L27.626 24.6689L27.8747 24.7082H41.7809H42.4026L42.4855 24.6689V24.5951L42.729 23.6505L42.8534 23.3011L43.1383 22.2089L44.0917 18.765L44.0502 18.7256L44.0036 18.6961H38.7395L38.5686 18.6518L38.5271 18.6124L38.9002 17.2791L42.4855 3.87722L42.6047 3.48363L42.6461 3.37047L42.6047 3.29175H31.0766ZM52.8996 3.29175L52.6043 3.33111L52.3193 3.37047L52.0292 3.44427L51.6613 3.56726L51.0344 3.9215L50.7546 4.11338L50.4282 4.38889L50.1329 4.70377L49.9723 5.01373L49.765 5.4024L49.3142 6.84394L44.703 23.5373L44.4129 24.6689L44.4543 24.7082H55.371L55.5731 24.6689L55.6041 24.6344L56.1533 22.7944L56.314 22.0908L56.6404 20.9592L57.1326 19.0798L57.2155 18.8486L57.2569 18.8043L57.3346 18.765H62.1168L62.1583 18.8043L62.1997 18.8781V24.6344L62.2308 24.7082H72.7278H73.3547L73.4324 24.6689L73.4739 24.5951V3.40983L73.4324 3.33111L73.3547 3.29175H62.2308L62.1997 3.37047V13.6827L62.1583 13.7614H58.6558L58.6092 13.722L58.6558 13.5695L58.7439 13.3333L59.1532 11.9705L59.5263 10.4798L59.7283 9.77623L59.9718 8.95952L60.1739 8.10345L60.6298 6.46019L60.8423 5.87472L61.2982 4.22654L61.5314 3.37047L61.4899 3.33111L61.4122 3.29175H52.8996ZM84.002 3.29175L83.4735 3.37047L82.8207 3.52791L82.2404 3.83294L81.9969 3.9953L81.5824 4.35445L81.3285 4.65949L81.1368 5.17116L80.8415 6.06659L75.9867 23.739L75.738 24.4672V24.6344L75.7795 24.6689L75.8572 24.7082H86.4734L86.6495 24.6689L86.6858 24.6344L87.4681 21.899L87.5096 21.6972L87.8826 20.4476L88.2505 19.0454L88.3334 18.8486L88.3697 18.8043L88.494 18.765H93.2347L93.2762 18.8486V24.5951L93.3125 24.6689L93.3539 24.7082H103.887H104.509L104.55 24.6689L104.592 24.5951V3.40983L104.55 3.33111L104.509 3.29175H93.3539L93.3125 3.33111L93.2762 3.40983V13.7614L93.2347 13.8106H89.7271L89.6494 13.7614V13.722L89.8981 12.7872L92.24 4.46761L92.5249 3.44427V3.33111L92.4524 3.29175H84.002ZM114.218 3.29175L113.85 3.33111L113.519 3.40983L113.068 3.6017L112.493 3.9953L112.12 4.42825L111.825 4.85629L111.664 5.28432L111.545 5.56476L111.084 7.35562L111.006 7.59177L109.98 11.5031L109.726 12.246L109.695 12.5954V13.2595L109.814 13.5301L110.141 14.0763L110.514 14.3567L110.763 14.4698L111.177 14.5781H118.166L118.218 14.6273V14.7454L118.047 15.5227L117.508 17.6727L117.265 18.4944L117.223 18.6518L117.141 18.6961H108.291L108.125 18.7256L108.042 18.765V18.9175L107.882 19.5521L106.928 23.065L106.514 24.6344V24.6689L106.607 24.7082H124.296H124.793L125.083 24.6689H125.581L126.482 24.5164L127.062 24.2802L127.549 23.9653L127.922 23.6505L128.259 23.2569L128.539 22.8682L128.788 22.3221L128.995 21.5447L129.441 19.8227L129.943 17.9482L130.021 17.7121L130.637 15.3653L130.731 14.8979L130.803 14.6666L130.891 14.2337V13.5695L130.803 13.1365L130.637 12.7134L130.394 12.4724L130.145 12.2805L129.736 12.0837L129.238 12.0099H122.037L121.871 11.9705L121.835 11.9312L121.959 11.4195L122.41 9.70243L122.819 8.26089L122.86 8.17233H131.176L131.295 8.10345L131.378 7.95093L131.497 7.51798L131.793 6.34211L132.249 4.62013L132.575 3.33111L132.534 3.29175H114.218Z" fill="#D40000"/>
</svg>
