<svg width="134" height="100" viewBox="0 0 134 100" fill="none" xmlns="http://www.w3.org/2000/svg">
<path d="M76.2878 38.7999C77.64 38.7777 78.7261 39.8666 78.7483 41.2221C78.7705 42.5777 77.6843 43.6666 76.3321 43.6888C74.98 43.711 73.8938 42.6221 73.8716 41.2666V41.2443C73.8938 39.911 74.9578 38.8221 76.2878 38.7999Z" fill="#FDC62F"/>
<path d="M109.671 52.2444C109.671 54.4222 111.112 55.6222 112.841 55.6222C114.015 55.6667 115.079 55 115.545 53.9111C115.611 53.7333 115.811 53.6444 115.988 53.6889L118.981 54.6C119.18 54.6667 119.291 54.8667 119.225 55.0667V55.0889C118.493 57.3333 116.299 59.4667 112.841 59.4667C108.784 59.4667 105.548 56.4889 105.548 52.2444C105.548 48 108.718 45 112.708 45C116.276 45 118.427 47.0889 119.136 49.3778C119.202 49.5778 119.114 49.7778 118.914 49.8444H118.892L115.855 50.7556C115.678 50.8 115.478 50.7111 115.412 50.5333C115.035 49.6222 114.237 48.8222 112.796 48.8222C111.067 48.8444 109.671 50.0444 109.671 52.2444Z" fill="#FDC62F"/>
<path d="M97.1467 45C93.0902 45 89.9203 47.9778 89.9203 52.2222C89.9203 56.4667 93.0902 59.4667 97.1467 59.4667C101.203 59.4667 104.373 56.4444 104.373 52.2222C104.373 48 101.225 45 97.1467 45ZM97.1467 55.6C95.595 55.6 94.0877 54.4667 94.0877 52.2C94.0877 49.9333 95.595 48.8222 97.1467 48.8222C98.6983 48.8222 100.206 49.8889 100.206 52.2C100.206 54.5111 98.7205 55.6 97.1467 55.6Z" fill="#FDC62F"/>
<path d="M89.3218 49.111C89.2997 49.311 89.1002 49.4444 88.9007 49.4222C88.6347 49.3777 88.3687 49.3777 88.1027 49.3777C86.4402 49.3777 84.9328 50.3777 84.9328 53.0888V58.6666C84.9328 58.8666 84.7777 59.0444 84.556 59.0444H81.1423C80.9428 59.0444 80.7655 58.8888 80.7655 58.6666V45.7777C80.7655 45.5777 80.9207 45.3999 81.1423 45.3999H84.423C84.6225 45.3999 84.7998 45.5555 84.7998 45.7777V47.2444C85.5313 45.711 87.2382 45.2666 88.3243 45.2666C88.7233 45.2666 89.1223 45.311 89.5213 45.3999C89.7208 45.4444 89.8317 45.6222 89.8095 45.8222L89.3218 49.111Z" fill="#FDC62F"/>
<path d="M74.6031 45.3999H78.0168C78.2163 45.3999 78.3936 45.5555 78.3936 45.7777V58.6666C78.3936 58.8666 78.2385 59.0443 78.0168 59.0443H74.6031C74.4036 59.0443 74.2263 58.8888 74.2263 58.6666V45.7777C74.2263 45.5777 74.4036 45.3999 74.6031 45.3999Z" fill="#FDC62F"/>
<path d="M66.3128 45.0889C64.3622 45.0889 62.8992 45.9333 62.3228 46.8222V45.7778C62.3228 45.5778 62.1677 45.4 61.946 45.4H58.6653C58.4658 45.4 58.2885 45.5555 58.2885 45.7555V63.8444C58.2885 64.0444 58.4437 64.2222 58.6653 64.2222H62.079C62.2785 64.2222 62.4337 64.0666 62.4337 63.8666V57.9555C63.0543 58.7333 64.3843 59.3333 66.1355 59.3333C69.9482 59.3333 72.6082 56.3555 72.6082 52.1778C72.6525 48.0889 70.2585 45.0889 66.3128 45.0889ZM65.4705 55.6C63.8523 55.6 62.4115 54.4444 62.4115 52.2C62.4115 49.9555 63.8523 48.8222 65.4705 48.8222C67.0887 48.8222 68.5517 49.9111 68.5517 52.2C68.5517 54.4889 67.1108 55.6 65.4705 55.6Z" fill="#FDC62F"/>
<path d="M44.1905 58.6668V39.9557C44.1905 39.7557 44.3457 39.5779 44.5673 39.5779H56.1162C56.3157 39.5779 56.493 39.7334 56.493 39.9557V43.3112C56.493 43.5112 56.3378 43.689 56.1162 43.689H48.8898C48.6903 43.689 48.513 43.8445 48.513 44.0668V47.0223C48.513 47.2223 48.6682 47.4001 48.8898 47.4001H55.3847C55.5842 47.4001 55.7393 47.5779 55.7393 47.7779V50.8445C55.7393 51.0445 55.5842 51.2223 55.3625 51.2223H48.8677C48.6682 51.2223 48.4908 51.3779 48.4908 51.6001V54.6001C48.4908 54.8001 48.646 54.9779 48.8677 54.9779H56.1383C56.3378 54.9779 56.5152 55.1334 56.5152 55.3557V58.6668C56.5152 58.8668 56.36 59.0445 56.1605 59.0445H44.5895C44.3678 59.0445 44.1905 58.8668 44.1905 58.6668Z" fill="#FDC62F"/>
<path d="M37.74 46.8222V43.4222C37.74 42.7333 37.3632 42.0889 36.7647 41.7333L27.233 36.2222C26.6345 35.8667 25.8808 35.8667 25.2823 36.2222L15.795 41.7111C15.1743 42.0667 14.7975 42.7111 14.7975 43.4222V54.4222C14.7975 55.1111 15.1743 55.7556 15.7728 56.1111L25.2823 61.6222C25.8808 61.9778 26.6345 61.9778 27.233 61.6222L36.7425 56.1333C37.341 55.7778 37.7178 55.1333 37.7178 54.4445V49.4445L26.2577 56.3111L19.8737 52.6222V45.2445L25.5927 41.9333C25.9917 41.6889 26.5015 41.6889 26.9005 41.9333L32.6195 45.2667L26.7453 48.6667C26.3242 48.9111 25.8143 48.9111 25.3932 48.6667L21.1593 46.2222V51.9556L26.169 54.6445L36.7647 48.5111C37.3632 48.1556 37.74 47.5111 37.74 46.8222Z" fill="#FDC62F"/>
</svg>
