<svg width="120" height="24" viewBox="0 0 120 24" fill="none" xmlns="http://www.w3.org/2000/svg">
<path fill-rule="evenodd" clip-rule="evenodd" d="M100.733 22.8495C98.365 22.8495 96.4449 20.907 96.4449 18.5099V5.49099C96.4449 3.09494 98.365 1.15137 100.733 1.15137H115.026C117.393 1.15137 119.312 3.09494 119.312 5.49099V18.5099C119.312 20.907 117.393 22.8495 115.026 22.8495H100.733ZM1.40263 22.8495C1.00817 22.8495 0.687969 22.5254 0.687969 22.1253V1.87446C0.687969 1.47548 1.00817 1.15137 1.40263 1.15137H21.4111C21.8066 1.15137 22.1268 1.47548 22.1268 1.87446V4.7679C22.1268 5.16688 21.8066 5.49099 21.4111 5.49099H7.1192C6.72466 5.49099 6.40446 5.8151 6.40446 6.21408V9.10752C6.40446 9.5065 6.72466 9.83061 7.1192 9.83061H19.9827C20.3772 9.83061 20.6974 10.1536 20.6974 10.5537V13.4471C20.6974 13.8461 20.3772 14.1692 19.9827 14.1692H7.1192C6.72466 14.1692 6.40446 14.4933 6.40446 14.8933V22.1253C6.40446 22.5254 6.08535 22.8495 5.68981 22.8495H1.40263ZM23.5551 1.87446C23.5551 1.47548 23.8753 1.15137 24.2699 1.15137H45.7087C46.1031 1.15137 46.4223 1.47548 46.4223 1.87446V4.7679C46.4223 5.16688 46.1031 5.49099 45.7087 5.49099H29.9863C29.5919 5.49099 29.2717 5.8151 29.2717 6.21408V9.10752C29.2717 9.5065 29.5919 9.83061 29.9863 9.83061H44.2793C44.6737 9.83061 44.9939 10.1536 44.9939 10.5537V13.4471C44.9939 13.8461 44.6737 14.1692 44.2793 14.1692H29.9863C29.5919 14.1692 29.2717 14.4933 29.2717 14.8933V17.7868C29.2717 18.1857 29.5919 18.5099 29.9863 18.5099H45.7087C46.1031 18.5099 46.4223 18.8329 46.4223 19.2319V22.1253C46.4223 22.5254 46.1031 22.8495 45.7087 22.8495H24.2699C23.8753 22.8495 23.5551 22.5254 23.5551 22.1253V1.87446ZM47.8517 9.83061C47.8517 12.2267 49.7719 14.1692 52.1388 14.1692H63.573C64.362 14.1692 65.0034 14.8174 65.0034 15.6164V17.0626C65.0034 17.8616 64.362 18.5099 63.573 18.5099H54.283C53.8895 18.5099 53.5682 18.1857 53.5682 17.7868C53.5682 17.3867 53.2491 17.0626 52.8546 17.0626H48.5664C48.1719 17.0626 47.8517 17.3867 47.8517 17.7868V18.5099C47.8517 20.907 49.7719 22.8495 52.1388 22.8495H66.4318C68.7998 22.8495 70.7189 20.907 70.7189 18.5099V14.1692C70.7189 11.7731 68.7998 9.83061 66.4318 9.83061H54.9976C54.2086 9.83061 53.5682 9.1824 53.5682 8.38443V6.93717C53.5682 6.13813 54.2086 5.49099 54.9976 5.49099H64.2876C64.6832 5.49099 65.0034 5.8151 65.0034 6.21408C65.0034 6.61414 65.3226 6.93717 65.717 6.93717H70.0052C70.3998 6.93717 70.7189 6.61414 70.7189 6.21408V5.49099C70.7189 3.09494 68.7998 1.15137 66.4318 1.15137H52.1388C49.7719 1.15137 47.8517 3.09494 47.8517 5.49099V9.83061ZM72.1483 1.87446C72.1483 1.47548 72.4685 1.15137 72.864 1.15137H94.3019C94.6963 1.15137 95.0155 1.47548 95.0155 1.87446V4.7679C95.0155 5.16688 94.6963 5.49099 94.3019 5.49099H87.1549C86.7603 5.49099 86.4412 5.8151 86.4412 6.21408V22.1253C86.4412 22.5254 86.121 22.8495 85.7265 22.8495H81.4383C81.0438 22.8495 80.7236 22.5254 80.7236 22.1253V6.21408C80.7236 5.8151 80.4034 5.49099 80.0089 5.49099H72.864C72.4685 5.49099 72.1483 5.16688 72.1483 4.7679V1.87446ZM103.592 18.5099C102.802 18.5099 102.162 17.8616 102.162 17.0626V6.93717C102.162 6.13813 102.802 5.49099 103.592 5.49099H112.167C112.957 5.49099 113.597 6.13813 113.597 6.93717V17.0626C113.597 17.8616 112.957 18.5099 112.167 18.5099H103.592Z" fill="#0099FF"/>
</svg>
