<svg width="108" height="19" viewBox="0 0 108 19" fill="none" xmlns="http://www.w3.org/2000/svg">
<path fill-rule="evenodd" clip-rule="evenodd" d="M82.3164 1.16272H86.7044V8.15752H95.5926V1.16808H99.9807V18.631H95.5926V10.9286H86.7044V18.631H82.3164V1.16272ZM0.0220032 1.16272H4.41008V8.15752H13.2982V1.16808H17.7169V18.631H13.2982V10.9286H4.41008V18.631H0.0220032V1.16272ZM21.3465 1.16272H25.7905V18.6256H21.3465V1.16272ZM103.534 1.16272H107.978V18.6256H103.534V1.16272ZM27.4144 1.16272H44.6766V4.0732H38.2268V18.6256H33.8642V4.0732H27.4144V1.16272ZM48.4691 11.9524L51.5336 4.16432L54.5676 11.9524H48.4691ZM55.6773 14.7182L57.1943 18.6256H62.1526L54.3232 1.19488H48.7694L40.8841 18.6256H45.8169L47.3593 14.7182H55.6773ZM75.5153 7.1016H80.0154C79.9594 3.93384 77.3581 0.910795 71.3156 0.851835C66.8206 0.825035 61.3686 2.76536 61.3432 9.86736C61.3177 16.9158 66.8715 19.1134 71.3156 18.9954C75.4084 18.8507 79.9594 17.6554 80.1478 12.349L75.6222 12.3758C75.4848 15.6883 72.965 16.3422 71.3156 16.369C69.6103 16.369 66.113 15.9992 66.057 9.94776C66.001 4.23936 69.1979 3.44072 71.3156 3.44072C73.4027 3.47824 75.4848 4.502 75.5153 7.1016Z" fill="#CF4044"/>
</svg>
