<svg width="148" height="105" viewBox="0 0 148 105" fill="none" xmlns="http://www.w3.org/2000/svg">
<g filter="url(#filter0_d_113_1177)">
<path fill-rule="evenodd" clip-rule="evenodd" d="M119.596 43.6274H132.826C136.974 43.6274 138.549 46.4362 138.549 48.8512C138.549 52.9724 134.848 53.7074 134.848 53.7074L139.651 61.3724H129.965L127.891 56.2799V61.3724H110.304L108.23 56.2799V61.3724H99.935V43.6274H113.165C117.313 43.6274 118.888 46.4362 118.888 48.8512C118.888 52.9724 115.186 53.7074 115.186 53.7074L119.623 60.7949L119.596 43.6274ZM53.525 47.0137V50.3737H54.7325C55.3625 50.3737 55.835 49.9799 56.045 49.5337C56.2288 49.1662 56.3338 48.4574 56.0188 47.8012C55.625 47.0137 54.89 47.0137 54.7063 46.9874L53.525 47.0137ZM45.0988 43.6274C45.0988 43.6274 57.1475 43.6274 59.2213 43.6274C63.1588 43.6274 64.0775 46.5674 64.1038 48.3262C64.1038 51.4499 61.925 52.2112 61.925 52.2112C61.925 52.2112 64.2875 53.1037 64.2875 56.4112C64.2875 61.5824 59.5363 61.3724 58.8013 61.3724H45.0988V43.6274ZM99.095 61.3724V57.3037H95.2625V54.0749H99.0688V50.5574H95.2625V47.1449H99.095V43.6537H86.4688V61.3987H99.095V61.3724ZM76.5988 61.3724H85.3662V43.6274H76.5988V50.3474H73.7638V43.6274H64.7863V61.3724H73.7638V53.9174H76.5988V61.3724ZM44.3113 61.3724V57.3037H40.4788V54.0749H44.285V50.5574H40.4788V47.1449H44.3113V43.6537H31.685V61.3987H44.3113V61.3724ZM21.9725 43.6274H30.5825V61.3724H21.9725V43.6274ZM21.1063 61.3724V56.4637H17.2738V43.6274H8.375V61.3724H21.1063ZM108.046 47.0137V51.2137H109.096C110.225 51.2137 110.645 50.6624 110.881 50.1112C111.065 49.6649 111.223 48.8512 110.881 48.0112C110.698 47.5649 110.225 47.0137 109.096 47.0137H108.046ZM127.734 47.0137V51.2137H128.784C129.913 51.2137 130.333 50.6624 130.569 50.1112C130.753 49.6649 130.91 48.8512 130.569 48.0112C130.385 47.5649 129.913 47.0137 128.784 47.0137H127.734ZM53.525 54.1799V57.8024H54.7325C55.3625 57.8024 56.0188 57.3824 56.255 56.8837C56.4388 56.4899 56.57 55.7287 56.2288 55.0199C55.7825 54.0749 54.8113 54.1537 54.7325 54.1537L53.525 54.1799Z" fill="black"/>
</g>
<defs>
<filter id="filter0_d_113_1177" x="-3.5" y="0" width="155" height="113" filterUnits="userSpaceOnUse" color-interpolation-filters="sRGB">
<feFlood flood-opacity="0" result="BackgroundImageFix"/>
<feColorMatrix in="SourceAlpha" type="matrix" values="0 0 0 0 0 0 0 0 0 0 0 0 0 0 0 0 0 0 127 0" result="hardAlpha"/>
<feOffset dy="4"/>
<feGaussianBlur stdDeviation="2"/>
<feComposite in2="hardAlpha" operator="out"/>
<feColorMatrix type="matrix" values="0 0 0 0 0 0 0 0 0 0 0 0 0 0 0 0 0 0 0.25 0"/>
<feBlend mode="normal" in2="BackgroundImageFix" result="effect1_dropShadow_113_1177"/>
<feBlend mode="normal" in="SourceGraphic" in2="effect1_dropShadow_113_1177" result="shape"/>
</filter>
</defs>
</svg>
