<svg width="123" height="119" viewBox="0 0 123 119" fill="none" xmlns="http://www.w3.org/2000/svg">
<g clip-path="url(#clip0_114_736)">
<path fill-rule="evenodd" clip-rule="evenodd" d="M11.2135 53.7571C11.1889 54.8352 11.7566 56.5384 14.6683 56.5384C16.1988 56.5384 17.7533 56.2629 17.7533 54.7342C17.7533 52.8284 15.4588 52.4788 13.3606 52.0019C10.2508 51.3003 7.65882 50.4971 7.65882 46.5875C7.65882 43.7554 9.53492 41.3984 14.7423 41.3984C19.5307 41.3984 21.2574 44.1558 21.3074 46.7124H17.4571C17.359 45.7598 16.6918 44.8066 14.4955 44.8066C12.4719 44.8066 11.83 45.6098 11.83 46.4871C11.83 48.0158 13.7555 48.3415 15.2367 48.6421C18.8642 49.3443 21.9246 50.273 21.9246 54.1073C21.9246 55.5356 21.5302 59.9472 14.6189 59.9472C8.25064 59.9472 7.11573 56.0872 7.09105 53.7565L11.2135 53.7571ZM28.639 53.1804L30.9088 46.4884L33.1306 53.1804H28.639ZM28.8365 41.9011L22.3702 59.447H26.6642L27.7504 56.1625H34.0199L35.1307 59.447H39.4494L32.9584 41.9011H28.8365ZM44.8796 48.4682V59.447H40.8065V41.9011H44.9284L51.7403 52.8045H51.815V41.9011H55.8869V59.447H51.7403L44.9284 48.4682H44.8796ZM63.5147 45.3086H66.3517C68.0797 45.3086 70.8691 45.8608 70.8691 50.723C70.8691 54.3338 69.2893 56.037 66.1048 56.037H63.5147V45.3086ZM59.4416 41.9011V59.447H66.4998C69.2886 59.447 75.2613 58.9456 75.2613 50.6496C75.2613 42.1019 68.5234 41.9011 66.8694 41.9011H59.4416ZM87.43 41.9011H91.9475L86.0736 59.447H81.7529L75.9031 41.9011H80.5687L84.0721 54.4336L87.43 41.9011ZM97.3758 41.9011V59.447H93.3045V41.9011H97.3758ZM111.619 41.9011H116.703L109.767 49.1705L117.221 59.447H112.136L106.953 51.8777L105.004 53.882V59.447H100.93V41.9011H105.004V49.045L111.619 41.9011ZM29.7296 65.1253H26.706V68.9632H29.9461C30.6398 68.9632 32.0741 68.6963 32.0741 66.9907C32.0741 65.5477 31.0867 65.1253 29.7296 65.1253ZM83.4132 67.5221C82.8113 67.5221 80.9915 67.6794 80.9915 70.8586C80.9915 74.0391 82.8113 74.1952 83.4132 74.1952C84.0152 74.1952 85.8349 74.0391 85.8349 70.8586C85.8349 67.6788 84.0152 67.5221 83.4132 67.5221ZM38.9696 67.5221C38.3683 67.5221 36.5479 67.6794 36.5479 70.8586C36.5479 74.0391 38.3683 74.1952 38.9696 74.1952C39.5716 74.1952 41.392 74.0391 41.392 70.8586C41.392 67.6788 39.5716 67.5221 38.9696 67.5221ZM74.3738 67.5221C73.7719 67.5221 71.9509 67.6794 71.9509 70.8586C71.9509 74.0391 73.7719 74.1952 74.3738 74.1952C74.9745 74.1952 76.7956 74.0391 76.7956 70.8586C76.7956 67.6788 74.9745 67.5221 74.3738 67.5221Z" fill="#00ACEC"/>
<path fill-rule="evenodd" clip-rule="evenodd" d="M5.72069 61.4717V77.6432H117.235V61.4717H5.72069ZM32.2286 74.8534C31.8431 74.3673 31.8431 73.9602 31.8273 72.5349C31.8127 71.4066 31.7349 70.2006 29.7917 70.2006H26.7066V74.854H25.2565V63.8881H30.0385C31.2108 63.8881 33.6173 64.0595 33.6173 66.8328C33.6173 68.0701 32.9388 69.3086 31.7659 69.5431V69.5896C33.216 70.1228 33.2939 71.1091 33.3242 72.2368C33.3698 73.7563 33.3084 74.2271 33.7559 74.854H32.2286V74.8534ZM38.9696 75.1668C36.1169 75.1668 35.113 72.9898 35.113 70.8734C35.113 68.7582 36.1169 66.5812 38.9696 66.5812C41.8237 66.5812 42.8263 68.7582 42.8263 70.8734C42.8263 72.9898 41.8237 75.1668 38.9696 75.1668ZM47.9786 75.1668C47.1918 75.1668 44.153 75.0566 44.153 70.8116C44.153 68.9621 44.8467 66.5818 47.8862 66.5818C50.0921 66.5818 51.1567 67.8974 51.3264 69.387H50.0307C49.7535 67.6158 48.3799 67.554 47.9172 67.554C46.2202 67.554 45.5873 69.0104 45.5873 70.8116C45.5873 72.598 46.2816 74.1946 48.0096 74.1946C49.5522 74.1946 50.0459 72.8949 50.0921 72.0176H51.3878C51.2954 72.9574 50.7865 75.1668 47.9786 75.1668ZM58.4991 74.8534L55.7381 70.811L54.4114 72.1425V74.8534H53.0537V63.8875H54.4114V70.6855L58.144 66.8946H59.7638L56.6781 69.9643L60.072 74.8534H58.4991ZM68.7747 74.8534H67.3233V65.1247H63.8059V63.8875H72.2756V65.1247H68.7747V74.8534ZM74.3738 75.1668C71.5192 75.1668 70.5178 72.9898 70.5178 70.8734C70.5178 68.7582 71.5192 66.5812 74.3738 66.5812C77.2272 66.5812 78.2311 68.7582 78.2311 70.8734C78.2311 72.9898 77.2272 75.1668 74.3738 75.1668ZM83.4132 75.1668C80.5598 75.1668 79.5559 72.9898 79.5559 70.8734C79.5559 68.7582 80.5598 66.5812 83.4132 66.5812C86.2679 66.5812 87.2692 68.7582 87.2692 70.8734C87.2692 72.9898 86.2679 75.1668 83.4132 75.1668ZM90.4018 74.8534H89.0441V63.8875H90.4018V74.8534ZM95.2294 75.1668C92.9001 75.1668 91.805 73.9436 91.7595 72.4866H93.1159C93.1482 73.7557 94.2274 74.1946 95.2446 74.1946C97.0656 74.1946 97.0498 73.0204 97.0498 72.6904C97.0498 72.1737 96.9422 71.7348 95.3996 71.3754L94.5679 71.1875C93.24 70.8899 92.0994 70.5287 92.0994 68.869C92.0994 67.0985 93.6584 66.5818 95.0775 66.5818C97.7454 66.5818 98.1929 68.1172 98.2549 68.9786H96.9593C96.927 68.5237 96.682 67.554 95.1224 67.554C94.954 67.554 93.5027 67.5381 93.5027 68.8072C93.5027 69.9349 94.5363 70.0273 95.6636 70.2783C97.2682 70.6402 98.455 70.9689 98.455 72.598C98.4537 75.1032 95.5857 75.1668 95.2294 75.1668Z" fill="#00ACEC"/>
<path d="M120.097 80.4098H2.85779V38.6338H120.097V80.4098Z" stroke="#00ACEC" stroke-width="9.92249" stroke-miterlimit="2.613"/>
</g>
<defs>
<clipPath id="clip0_114_736">
<rect width="122" height="118" fill="white" transform="translate(0.5 0.5)"/>
</clipPath>
</defs>
</svg>
