<svg width="148" height="26" viewBox="0 0 148 26" fill="none" xmlns="http://www.w3.org/2000/svg">
<g clip-path="url(#clip0_113_1179)">
<path d="M28.4235 24.5003H2.10977V1.81519H28.4235V24.5003Z" fill="white"/>
<mask id="mask0_113_1179" style="mask-type:luminance" maskUnits="userSpaceOnUse" x="-3" y="0" width="161" height="35">
<path d="M-2.91235 34.6194H157.777V0.433872H-2.91235V34.6194Z" fill="white"/>
</mask>
<g mask="url(#mask0_113_1179)">
<path d="M2.89385 1.16316C2.07299 1.16316 1.40231 1.83506 1.40231 2.66317V23.5398C1.40231 24.3672 2.07299 25.0391 2.89385 25.0391H27.5635C28.3859 25.0391 29.0518 24.3672 29.0518 23.5398V2.66317C29.0518 1.83506 28.3859 1.16316 27.5635 1.16316H2.89385Z" fill="white"/>
<path d="M2.89385 1.16316C2.07299 1.16316 1.40231 1.83506 1.40231 2.66317V23.5398C1.40231 24.3672 2.07299 25.0391 2.89385 25.0391H27.5635C28.3859 25.0391 29.0518 24.3672 29.0518 23.5398V2.66317C29.0518 1.83506 28.3859 1.16316 27.5635 1.16316H2.89385ZM2.51719 23.5398V2.66317C2.51719 2.45435 2.68884 2.28379 2.89385 2.28379H27.5635C27.7669 2.28379 27.9377 2.45435 27.9377 2.66317V23.5398C27.9377 23.7487 27.7669 23.9248 27.5635 23.9248H2.89385C2.68884 23.9248 2.51719 23.7487 2.51719 23.5398Z" fill="black"/>
<path d="M25.6181 4.37972L21.0362 8.97461V8.98736C20.8916 9.15793 20.6548 9.2464 20.441 9.2464C20.2265 9.2464 20.0342 9.14119 19.8737 8.96026L15.2306 4.31197L10.5978 8.96425C10.4357 9.14916 10.2363 9.2464 10.0225 9.2464C9.80715 9.2464 9.57273 9.14119 9.42731 8.97461L4.84542 4.37972L4.81125 4.34704V21.9822H14.5806H15.8854H25.6491V4.34704L25.6181 4.37972ZM13.5046 15.4441L6.54356 15.4609C6.07473 15.4609 5.6933 15.0775 5.6933 14.6033C5.6933 14.4295 5.74416 14.2669 5.83792 14.1306L9.48373 10.4571C9.62836 10.332 9.82146 10.2546 10.032 10.2546C10.3006 10.2546 10.485 10.3224 10.6407 10.5129L14.1952 14.0963C14.2953 14.2342 14.3573 14.408 14.3573 14.5921C14.3573 15.0623 13.9711 15.4441 13.5046 15.4441ZM23.943 15.4609L16.9867 15.4441C16.5147 15.4441 16.1317 15.0623 16.1317 14.5921C16.1317 14.408 16.1921 14.2342 16.2914 14.0963L19.8458 10.5129C20.0032 10.3224 20.1899 10.2546 20.4545 10.2546C20.6667 10.2546 20.8598 10.332 21.006 10.4571L24.6486 14.1306C24.74 14.2669 24.7893 14.4295 24.7893 14.6033C24.7893 15.0775 24.4142 15.4609 23.943 15.4609Z" fill="#D31145"/>
<path d="M43.4578 21.9531V8.07918H36.461V4.34748H55.2089V8.07918H48.6062V21.9531H43.4578Z" fill="black"/>
<path d="M57.5869 21.9531V4.34748H74.4858V8.21468H62.0727V11.5487H74.2203V15.015H62.0727V18.4836H74.4858V21.9531H57.5869Z" fill="black"/>
<path d="M99.9655 21.9531V4.34748H116.865V8.21468H104.454V11.5487H116.602V15.015H104.454V18.4836H116.865V21.9531H99.9655Z" fill="black"/>
<path d="M140.595 21.9873L132.412 12.7003L139.771 4.34738H133.63L129.333 9.20769L125.05 4.34738H118.909L126.24 12.7003L118.05 21.953H124.257L129.318 16.2096L134.391 21.9873H140.595Z" fill="black"/>
<path d="M82.4397 7.94639H90.6221C93.2969 7.94639 93.3652 11.5482 90.7206 11.5482H82.4047L82.4397 7.94639ZM77.7847 4.34699V21.9526H82.4047V15.2855H86.9596L92.0429 21.9526H97.5887C97.5887 21.9526 92.5046 15.2169 92.5674 15.2855C98.2467 15.4146 100.368 4.34699 90.7206 4.34699H77.7847Z" fill="black"/>
<path d="M142.449 20.988H142.929V19.6609H143.446L144.319 20.988H144.798L143.896 19.6235C144.377 19.5733 144.748 19.3103 144.748 18.7483C144.748 18.1203 144.369 17.8222 143.672 17.8222H142.449V20.988ZM142.929 19.2226V18.2598H143.584C143.919 18.2598 144.267 18.3108 144.267 18.726C144.267 19.2003 143.882 19.2226 143.446 19.2226H142.929ZM140.828 19.3908C140.828 20.886 142.035 22.0967 143.525 22.0967C145.016 22.0967 146.223 20.886 146.223 19.3908C146.223 17.8947 145.016 16.684 143.525 16.684C142.035 16.684 140.828 17.8947 140.828 19.3908ZM143.525 21.6583C142.297 21.6583 141.308 20.6453 141.308 19.3908C141.308 18.137 142.297 17.1208 143.525 17.1208C144.756 17.1208 145.745 18.137 145.745 19.3908C145.745 20.6453 144.756 21.6583 143.525 21.6583Z" fill="black"/>
</g>
</g>
<defs>
<clipPath id="clip0_113_1179">
<rect width="148" height="26" fill="white"/>
</clipPath>
</defs>
</svg>
