<svg width="116" height="87" viewBox="0 0 116 87" fill="none" xmlns="http://www.w3.org/2000/svg">
<g clip-path="url(#clip0_113_1159)">
<path d="M54.5931 46.2643H63.3997V43.3222H62.4354C62.4354 44.4538 61.5998 45.2944 60.3463 45.2944H58.9964V40.8652H60.4427V39.8953H54.5609V40.8652H56.0394V45.2944H54.5609V46.2643H54.5931Z" fill="black"/>
<path d="M67.6423 46.2644H71.0813L73.974 40.8653H75.4203V39.863H71.0492V40.8653H72.3027L70.1814 44.8095L68.0601 40.8653H69.6028V39.863H63.239L63.2068 40.8653H64.6853L67.6423 46.2644Z" fill="black"/>
<path d="M37.0442 39.863H30.6803V40.8653H32.1266L35.1157 46.2644H38.5226L41.4475 40.8653H42.8938V39.863H38.5226V40.8653H39.7761L37.6548 44.8095L35.5014 40.8653H37.0442V39.863Z" fill="black"/>
<path d="M43.7616 43.0636C43.7616 44.9388 45.2722 46.4583 48.2935 46.4583C51.3147 46.4583 52.7932 44.9711 52.7932 43.0636C52.7932 41.2208 51.2183 39.7336 48.2613 39.7336C45.3044 39.7336 43.7616 41.2208 43.7616 43.0636ZM49.8362 43.096C49.8041 44.2598 49.3541 45.4561 48.2292 45.4561C47.1685 45.4237 46.6864 44.2275 46.6864 43.0636C46.7186 41.8351 47.2971 40.7682 48.2935 40.7682C49.322 40.7682 49.8684 41.8674 49.8362 43.096Z" fill="black"/>
<path d="M76.2881 43.0636C76.2881 44.9388 77.7988 46.4583 80.82 46.4583C83.8412 46.4583 85.3197 44.9711 85.3197 43.0636C85.3197 41.2208 83.7448 39.7336 80.7879 39.7336C77.8309 39.7336 76.2881 41.2208 76.2881 43.0636ZM80.8521 40.7359C81.8485 40.7682 82.3949 41.8351 82.3628 43.0636C82.3306 44.2275 81.8807 45.4237 80.7557 45.4237C79.6629 45.3914 79.213 44.1952 79.213 43.0313C79.2451 41.8028 79.8236 40.7359 80.8521 40.7359Z" fill="black"/>
<path d="M87.8589 22.7604L84.1627 26.4784C87.3125 31.3925 89.1445 37.2443 89.1445 43.5163C89.1445 60.8452 75.1954 74.8764 57.9679 74.8764C40.7404 74.8764 26.7912 60.8452 26.7912 43.5163C26.7912 26.1874 40.7404 12.1562 57.9679 12.1562C64.2353 12.1562 70.0528 13.999 74.9382 17.1997L78.6344 13.4817C72.7848 9.37582 65.6495 6.9834 57.9679 6.9834C37.9441 6.9834 21.713 23.3424 21.713 43.484C21.713 63.6255 37.9762 79.9845 58 79.9845C78.0238 79.9845 94.287 63.6255 94.287 43.484C94.287 35.7894 91.9086 28.6445 87.8589 22.7604Z" fill="black"/>
<path d="M76.256 8.43823V9.47279C78.4737 10.669 80.5307 12.0915 82.4592 13.6757L77.2845 18.8808C79.2451 20.4327 81.0129 22.1785 82.5235 24.1506L87.6982 18.9455C89.2731 20.8853 90.6873 22.9544 91.8765 25.1528H92.8728V8.43823H76.256Z" fill="black"/>
</g>
<defs>
<clipPath id="clip0_113_1159">
<rect width="115" height="87" fill="white" transform="translate(0.5)"/>
</clipPath>
</defs>
</svg>
